<svg width="58" height="58" viewBox="0 0 58 58" fill="none" xmlns="http://www.w3.org/2000/svg">
<circle cx="29" cy="29" r="29" fill="#F7F5FF"/>
<path d="M36.8646 22.473C36.8646 21.4272 36.934 20.3904 36.8473 19.3807C36.6912 17.3703 35.2085 16 33.2576 16H20.555C18.5694 16 17 17.6137 17 19.6963V38.3037C17 40.3682 18.5521 41.982 20.555 42C24.8123 42 29.0696 42 33.327 41.982C33.6478 41.982 33.9773 41.9459 34.2981 41.8558C35.8415 41.432 37.0033 39.7732 36.8646 38.1956C34.9484 39.07 32.9801 39.2594 30.9685 38.6193C28.9482 37.9972 27.3962 36.7351 26.269 34.8689C24.4395 31.8669 24.6649 27.9362 26.7112 25.0964C28.5667 22.527 32.5553 20.4986 36.8646 22.473ZM21.899 20.0028H28.1072C28.7401 20.0028 29.1824 20.4445 29.1824 21.0125C29.165 21.5805 28.7228 22.0042 28.1245 22.0042H21.899C21.2833 22.0042 20.8411 21.5804 20.8411 20.9945C20.8585 20.4265 21.2833 20.0028 21.899 20.0028ZM23.1302 30.0097H21.7776C21.2486 29.9736 20.8411 29.5319 20.8411 29.018C20.8411 28.4861 21.2486 28.0444 21.7602 28.0264C22.2198 28.0083 22.6706 28.0083 23.1129 28.0264C23.6418 28.0264 24.0319 28.4681 24.0319 29C24.0406 29.5319 23.6418 29.9736 23.1302 30.0097ZM24.3268 26.016H21.8296C21.2833 25.9979 20.8585 25.5742 20.8411 25.0243C20.8411 24.4563 21.266 24.0326 21.8469 24.0146H24.3441C24.8903 24.0326 25.3152 24.4563 25.3326 25.0062C25.3412 25.5472 24.8904 25.9979 24.3268 26.016Z" fill="#7A5FFF"/>
<path d="M41.7029 36.2843C40.8618 35.4098 40.0294 34.5264 39.171 33.6519C39.0149 33.4896 39.0149 33.3814 39.1017 33.1921C39.7346 31.8759 39.9254 30.4875 39.6479 29.0541C38.9629 25.5381 35.8155 23.2573 32.3298 23.7531C29.0783 24.2309 26.6852 27.4133 26.9626 30.8842C27.3355 35.6082 32.2258 38.439 36.2663 36.2663C36.8299 35.9417 37.3242 35.5361 37.8878 35.1484C37.9051 35.1664 37.9745 35.2205 38.0265 35.2746C38.7808 36.077 39.5265 36.8703 40.2982 37.6366C40.489 37.8169 40.7404 37.9431 40.9832 37.9882C41.356 38.0603 41.7375 37.8079 41.9023 37.4383C42.0757 37.0506 42.0237 36.6269 41.7029 36.2843ZM36.5178 29.7753C35.3732 30.6859 34.2114 31.5874 33.0668 32.4799C32.694 32.7684 32.2951 32.7684 31.9223 32.4799C31.3414 32.0381 30.7604 31.5874 30.1968 31.1276C29.8413 30.8211 29.7373 30.3793 29.8847 29.9736C30.0234 29.586 30.3963 29.3336 30.9078 29.3336C31.0119 29.3877 31.22 29.4417 31.3847 29.568C31.6882 29.7843 31.983 30.0097 32.2605 30.2621C32.4512 30.4244 32.5553 30.3884 32.72 30.2621C33.5784 29.568 34.4455 28.8918 35.3212 28.2157C35.9368 27.7559 36.7606 28.0895 36.8559 28.8558C36.9166 29.2254 36.7952 29.5499 36.5178 29.7753Z" fill="#7A5FFF"/>
</svg>
