<?xml version="1.0" encoding="utf-8"?>
<!-- Generator: Adobe Illustrator 19.0.0, SVG Export Plug-In . SVG Version: 6.00 Build 0)  -->
<svg version="1.1" id="Layer_1" xmlns="http://www.w3.org/2000/svg" xmlns:xlink="http://www.w3.org/1999/xlink" x="0px" y="0px"
	 viewBox="-226 228 58 58" style="enable-background:new -226 228 58 58;" xml:space="preserve">
<style type="text/css">
	.st0{fill:#DEFCFF;}
	.st1{fill:#58AEBC;}
</style>
<circle class="st0" cx="-197" cy="257" r="29"/>
<path class="st1" d="M-189.1,250.5c0-1,0.1-2.1,0-3.1c-0.2-2-1.6-3.4-3.6-3.4h-12.7c-2,0-3.6,1.6-3.6,3.7v18.6
	c0,2.1,1.6,3.7,3.6,3.7c4.3,0,8.5,0,12.8,0c0.3,0,0.7,0,1-0.1c1.5-0.4,2.7-2.1,2.6-3.7c-1.9,0.9-3.9,1.1-5.9,0.4
	c-2-0.6-3.6-1.9-4.7-3.8c-1.8-3-1.6-6.9,0.4-9.8C-197.4,250.5-193.4,248.5-189.1,250.5z M-204.1,248h6.2c0.6,0,1.1,0.4,1.1,1
	c0,0.6-0.5,1-1.1,1h-6.2c-0.6,0-1.1-0.4-1.1-1C-205.1,248.4-204.7,248-204.1,248z M-202.9,258h-1.4c-0.5,0-0.9-0.5-0.9-1
	c0-0.5,0.4-1,0.9-1c0.5,0,0.9,0,1.4,0c0.5,0,0.9,0.4,0.9,1C-202,257.5-202.4,258-202.9,258z M-201.7,254h-2.5c-0.5,0-1-0.4-1-1
	c0-0.6,0.4-1,1-1h2.5c0.5,0,1,0.4,1,1C-200.7,253.5-201.1,254-201.7,254z"/>
<path class="st1" d="M-184.3,264.3c-0.8-0.9-1.7-1.8-2.5-2.6c-0.2-0.2-0.2-0.3-0.1-0.5c0.6-1.3,0.8-2.7,0.5-4.1
	c-0.7-3.5-3.8-5.8-7.3-5.3c-3.3,0.5-5.6,3.7-5.4,7.1c0.4,4.7,5.3,7.6,9.3,5.4c0.6-0.3,1.1-0.7,1.6-1.1c0,0,0.1,0.1,0.1,0.1
	c0.8,0.8,1.5,1.6,2.3,2.4c0.2,0.2,0.4,0.3,0.7,0.4c0.4,0.1,0.8-0.2,0.9-0.5C-183.9,265.1-184,264.6-184.3,264.3z M-189.5,257.8
	c-1.1,0.9-2.3,1.8-3.5,2.7c-0.4,0.3-0.8,0.3-1.1,0c-0.6-0.4-1.2-0.9-1.7-1.4c-0.4-0.3-0.5-0.7-0.3-1.2c0.1-0.4,0.5-0.6,1-0.6
	c0.1,0.1,0.3,0.1,0.5,0.2c0.3,0.2,0.6,0.4,0.9,0.7c0.2,0.2,0.3,0.1,0.5,0c0.9-0.7,1.7-1.4,2.6-2c0.6-0.5,1.4-0.1,1.5,0.6
	C-189.1,257.2-189.2,257.5-189.5,257.8z"/>
</svg>
