<?xml version="1.0" encoding="utf-8"?>
<!-- Generator: Adobe Illustrator 19.0.0, SVG Export Plug-In . SVG Version: 6.00 Build 0)  -->
<svg version="1.1" id="Layer_1" xmlns="http://www.w3.org/2000/svg" xmlns:xlink="http://www.w3.org/1999/xlink" x="0px" y="0px"
	 viewBox="-226 228 58 58" style="enable-background:new -226 228 58 58;" xml:space="preserve">
<style type="text/css">
	.st0{fill:#DEFCFF;}
	.st1{fill:#58AEBC;}
</style>
<circle class="st0" cx="-197" cy="257" r="29"/>
<path class="st1" d="M-189.3,254.5c-1.3-6.1-8.2-8.5-13-5.3c-4.1,2.8-4.9,9-1.6,12.7c0.2,0.2,0.2,0.4,0.2,0.6
	c-0.2,0.7-0.3,1.3-0.4,2c-0.1,0.3,0,0.6,0.3,0.8c0.3,0.2,0.6,0.1,0.8-0.1c0.6-0.4,1.3-0.7,1.9-1.1c0.2-0.1,0.3-0.1,0.5,0
	c1,0.4,2.1,0.6,3.2,0.6c0.4,0,0.7,0,1.1-0.1C-191.6,264.3-188.2,259.7-189.3,254.5z M-198,259.5h-4.7v0c0-0.3,0-0.6,0-1
	c0-0.1,0-0.2,0-0.3c0-0.1,0.1-0.2,0.2-0.3c0.6-0.5,1.3-1,1.9-1.5c0.3-0.2,0.5-0.5,0.7-0.9c0,0,0-0.1,0-0.1c0.1-0.2,0.1-0.3,0-0.5
	c0,0,0-0.1,0-0.1c0,0,0-0.1,0-0.1c-0.1-0.1-0.2-0.2-0.3-0.2c-0.2-0.1-0.5,0-0.6,0.2c-0.1,0.1-0.2,0.2-0.2,0.4c0,0.1-0.1,0.3-0.1,0.5
	c-0.5-0.1-1-0.2-1.5-0.3c0.1-1.4,1.3-2.4,2.8-2.1c0.9,0.1,1.5,0.5,1.8,1.5c0.2,0.9-0.1,1.6-0.8,2.2c-0.1,0-0.1,0.1-0.2,0.1
	c-0.4,0.3-0.8,0.6-1.1,0.9c0,0,0,0,0,0c0,0,0,0,0,0c0,0,0,0,0,0.1h2.2V259.5z M-192.3,258.1h-0.8v1.4h-1.6v-1.4h-2.5
	c0-0.6-0.1-1.3,0.3-1.9c0.6-0.9,1.2-1.8,1.8-2.7c0.1-0.2,0.2-0.2,0.4-0.2c0.5,0,1,0,1.6,0v3.6h0.8V258.1z"/>
<path class="st1" d="M-194.6,268.4c0,0.1,0,0.3,0,0.4c0,0.6-0.5,1.2-1.2,1.2c-1.1,0-2.3,0-3.5,0c-0.6,0-1.1-0.5-1.1-1.2
	c0-0.2,0-0.5,0-0.7c0-0.7,0.5-1.2,1.2-1.2c0.6,0,1.2,0,1.8,0c2.5,0,4.6-0.9,6.5-2.4c1.3-1.1,2.2-2.4,2.9-4c0.2-0.5,0.3-1.1,0.4-1.6
	c0.1-0.7,0.2-1.3,0.3-2c0.3-1.5,0-3-0.6-4.4c-1.7-4.3-5.9-6.9-10.4-6.6c-4.8,0.4-8.9,4.3-9.5,9.1c-0.1,0.8,0.1,1.6,0.2,2.4
	c0.2,1.4,0.4,2.9,0.6,4.3c0.1,0.9-0.1,1.3-1,1.5c-0.5,0.1-1,0.3-1.4,0.3c-1.1,0-1.9-0.7-2.5-1.6c-1.4-2.2-1.6-4.5-0.5-6.8
	c0.5-1.3,1.6-2.1,3-2.3c0.1,0,0.2-0.1,0.2-0.3c0.7-2.1,1.8-4,3.5-5.4c2.6-2.4,5.7-3.5,9.3-3.1c5.3,0.6,8.7,3.5,10.5,8.6
	c0,0.1,0.2,0.3,0.2,0.3c1.9,0.1,2.9,1.4,3.3,3.1c0.6,2.2,0.3,4.3-1,6.2c-0.5,0.7-1.2,1.3-2.2,1.3c-0.5,0-1-0.1-1.5-0.3
	c-0.2,0-0.3,0-0.5,0.1c-1.7,2.5-4,4.1-6.9,4.9C-194.4,268.4-194.5,268.4-194.6,268.4z"/>
<path class="st1" d="M-200.3,257.9C-200.3,257.9-200.3,257.9-200.3,257.9C-200.3,257.9-200.3,257.9-200.3,257.9z"/>
<path class="st1" d="M-199.9,255.6c-0.2,0.3-0.4,0.6-0.7,0.9c-0.6,0.5-1.3,1-1.9,1.5c-0.1,0.1-0.2,0.2-0.2,0.3c0,0.1,0,0.2,0,0.3
	c0-0.1,0-0.2,0-0.3c0-0.1,0.1-0.2,0.2-0.3c0.6-0.5,1.3-1,1.9-1.5C-200.3,256.2-200.1,255.9-199.9,255.6
	C-199.9,255.6-199.9,255.5-199.9,255.6C-199.9,255.5-199.9,255.5-199.9,255.6z"/>
<path class="st1" d="M-200.3,258C-200.3,258-200.3,258-200.3,258C-200.3,258-200.3,258-200.3,258z"/>
<path class="st1" d="M-194.7,255.1v1.6h-1.2C-195.5,256.2-195.2,255.6-194.7,255.1C-194.8,255.1-194.8,255.1-194.7,255.1z"/>
</svg>
