<svg width="58" height="58" viewBox="0 0 58 58" fill="none" xmlns="http://www.w3.org/2000/svg">
<circle cx="29" cy="29" r="29" fill="#F7F5FF"/>
<path d="M36.7353 26.536C35.4584 20.3949 28.5535 18.0144 23.7375 21.2841C19.5964 24.0999 18.8302 30.2411 22.1413 34.0295C22.3146 34.224 22.3511 34.3907 22.2963 34.6501C22.1321 35.3077 21.9953 35.9839 21.8676 36.6508C21.8038 36.975 21.8403 37.2807 22.123 37.4937C22.4058 37.6975 22.6885 37.5771 22.9531 37.4289C23.5824 37.0769 24.2118 36.7249 24.832 36.3637C25.0054 36.2618 25.1422 36.2433 25.3337 36.3266C26.3462 36.7435 27.4043 36.9472 28.4988 36.9565C28.8637 36.9287 29.2285 36.9102 29.5842 36.8639C34.4368 36.2711 37.8025 31.6675 36.7353 26.536ZM27.9789 31.5193H23.2358V31.4823C23.2358 31.1581 23.2358 30.8339 23.2449 30.5097C23.2449 30.4078 23.2541 30.3059 23.2632 30.1948C23.2632 30.1114 23.3909 30.0002 23.473 29.9354C24.1206 29.4352 24.7864 28.9628 25.4067 28.4349C25.6712 28.2033 25.9084 27.8884 26.0634 27.5734C26.0817 27.5456 26.0908 27.5086 26.0999 27.4808C26.1546 27.3141 26.1638 27.1566 26.1181 27.0269C26.109 26.9991 26.0999 26.9714 26.0817 26.9436C26.0725 26.9158 26.0543 26.888 26.0361 26.8695C25.9631 26.7676 25.8628 26.6935 25.7442 26.6564C25.507 26.5823 25.279 26.6379 25.1057 26.8139C25.0145 26.9065 24.9415 27.0362 24.8868 27.1937C24.8412 27.3326 24.8229 27.4808 24.7773 27.6846C24.2848 27.5919 23.7922 27.4901 23.2997 27.3974C23.3726 25.9895 24.6496 25.0262 26.109 25.267C26.9755 25.406 27.6505 25.8135 27.8603 26.7398C28.061 27.6383 27.7509 28.3793 27.012 28.9165C26.9573 28.9536 26.9026 28.9999 26.8478 29.0369C26.4648 29.3241 26.0817 29.6297 25.7077 29.9169C25.7077 29.9354 25.7168 29.9354 25.7168 29.9447C25.7168 29.9539 25.7168 29.9632 25.7259 29.9632C25.7259 29.9725 25.7259 29.991 25.7351 30.0188H27.9789V31.5193ZM33.7253 30.1299H32.9044V31.5193H31.2626V30.1299H28.7633C28.7724 29.4815 28.6539 28.8146 29.1099 28.2033C29.7575 27.3233 30.3139 26.3878 30.8977 25.4615C31.0072 25.2948 31.1166 25.23 31.3082 25.2392C31.8281 25.2578 32.3571 25.2485 32.9044 25.2485V28.8331H33.7253V30.1299Z" fill="#7A5FFF"/>
<path d="M31.3811 40.43C31.3811 40.5689 31.3811 40.6893 31.3811 40.8005C31.3538 41.4489 30.8612 41.9768 30.2227 41.9861C29.0734 42.0046 27.9242 42.0046 26.7658 41.9861C26.1455 41.9768 25.653 41.4581 25.6256 40.819C25.6165 40.5782 25.6165 40.3374 25.6256 40.0873C25.6438 39.374 26.1364 38.8646 26.8387 38.8553C27.4499 38.8461 28.0701 38.8461 28.6812 38.8553C31.144 38.8739 33.2966 37.9939 35.1756 36.4193C36.4526 35.3448 37.4194 34.0202 38.0306 32.4548C38.2312 31.9454 38.2951 31.3896 38.3954 30.8431C38.514 30.1855 38.5687 29.5093 38.6964 28.8517C39.0065 27.3048 38.6599 25.8598 38.0944 24.4519C36.3796 20.154 32.2294 17.5512 27.6779 17.894C22.8527 18.2459 18.8029 22.1826 18.2191 27.0269C18.1188 27.8698 18.2921 28.6572 18.4107 29.4723C18.6113 30.9172 18.8394 32.353 19.0491 33.7979C19.1677 34.6501 18.9123 35.0669 18.0914 35.2892C17.6262 35.4189 17.1337 35.5393 16.6502 35.5393C15.5283 35.5393 14.7348 34.8724 14.1784 33.9739C12.8284 31.8065 12.6278 29.4908 13.6311 27.1473C14.1784 25.8598 15.1908 25.0355 16.6411 24.8965C16.7323 24.8873 16.8509 24.7483 16.8783 24.6372C17.5624 22.516 18.6934 20.6728 20.3444 19.1907C22.9895 16.8102 26.0908 15.6802 29.6025 16.0785C34.8563 16.6713 38.3498 19.6075 40.1376 24.6464C40.1741 24.7576 40.2926 24.9058 40.3747 24.9058C42.2993 25.0262 43.2479 26.2767 43.704 27.981C44.2969 30.204 44.0232 32.3252 42.6642 34.2147C42.126 34.9558 41.4237 35.5115 40.4751 35.5393C39.9734 35.5486 39.4717 35.3911 38.97 35.2799C38.7694 35.2336 38.6417 35.2429 38.514 35.4282C36.7992 37.892 34.5097 39.5315 31.6365 40.3281C31.5636 40.3559 31.4906 40.3929 31.3811 40.43Z" fill="#7A5FFF"/>
<path d="M25.6986 29.9261C25.6986 29.9354 25.7077 29.9447 25.7077 29.9632C25.6986 29.9447 25.6986 29.9447 25.6986 29.9261Z" fill="white"/>
<path d="M26.0543 27.5827C25.8992 27.9069 25.6712 28.2218 25.3976 28.4441C24.7773 28.9721 24.1115 29.4445 23.4639 29.9447C23.3818 30.0095 23.2632 30.1114 23.2541 30.204C23.2449 30.3059 23.2449 30.4078 23.2449 30.519C23.2449 30.4078 23.2541 30.2966 23.2541 30.1855C23.2541 30.1021 23.3726 30.0002 23.4639 29.9354C24.1115 29.4352 24.7773 28.9721 25.3976 28.4441C25.6712 28.2125 25.8992 27.8976 26.0543 27.5827C26.0725 27.5549 26.0817 27.5179 26.0908 27.4901C26.0817 27.5179 26.0725 27.5456 26.0543 27.5827Z" fill="white"/>
<path d="M25.7168 30.0373C25.7168 30.0095 25.7168 30.0095 25.7077 30.0002C25.7077 30.0095 25.7077 30.0373 25.7168 30.0373Z" fill="white"/>
<path d="M31.2626 27.1103V28.7405H30.1041C30.4781 28.1848 30.8339 27.6197 31.1805 27.064C31.2078 27.0732 31.1713 27.101 31.2626 27.1103Z" fill="#7A5FFF"/>
</svg>
