<svg width="58" height="58" viewBox="0 0 58 58" fill="none" xmlns="http://www.w3.org/2000/svg">
<circle cx="29" cy="29" r="29" fill="#F7F5FF"/>
<path d="M42.9716 14.0434C42.7544 13.9855 42.53 14.0145 42.3418 14C41.9291 14.029 41.5599 14.0579 41.169 14.0869C40.9228 14.1013 40.6839 14.1303 40.4378 14.1592C35.8261 14.789 31.6996 16.5696 28.0508 19.4287C23.9098 22.6859 20.9415 26.8334 18.69 31.531C18.4222 32.0884 18.5163 32.6457 18.9724 33.1017L24.8799 39.0081C25.3794 39.5075 25.9368 39.5799 26.5667 39.2759C29.3467 37.9224 31.9602 36.3083 34.3203 34.325C38.4613 30.8434 41.4585 26.6018 43.0295 21.3975C43.6159 19.4432 43.9707 17.4309 43.9996 15.3897C44.0141 14.7021 43.6015 14.1737 42.9716 14.0434ZM34.8343 27.1881C32.6045 27.1881 30.8091 25.393 30.8091 23.1781C30.8091 20.9053 32.5683 19.1536 34.8488 19.1536C37.1293 19.1536 38.9174 20.927 38.8885 23.1781C38.874 25.4075 37.0786 27.2025 34.8343 27.1881Z" fill="#7A5FFF"/>
<path d="M24.5468 20.4131C22.2012 22.7366 20.3117 25.2699 18.7045 28.0494C18.2339 27.8974 17.7851 27.7527 17.329 27.6079C16.3951 27.3111 15.4612 27.0143 14.5345 26.7103C13.9988 26.5366 13.825 26.0227 14.2015 25.6536C15.8738 23.9888 17.5462 22.3167 19.4864 20.9487C19.7687 20.7533 20.0655 20.5796 20.3624 20.4058C21.0646 19.9933 21.8175 19.7906 22.6356 19.9643C23.2437 20.0946 23.8446 20.2466 24.5468 20.4131Z" fill="#7A5FFF"/>
<path d="M29.9476 39.3049C32.7276 37.698 35.2687 35.816 37.5854 33.4709C37.7519 34.1368 37.9039 34.7303 38.0414 35.3311C38.2804 36.3951 37.8605 37.2926 37.303 38.154C36.3763 39.5799 35.2325 40.8321 34.0669 42.0626C33.5167 42.6417 32.952 43.2135 32.3801 43.7781C32.0181 44.1328 31.4969 44.0532 31.3448 43.6044C30.867 42.1785 30.4182 40.7525 29.9476 39.3049Z" fill="#7A5FFF"/>
<path d="M21.7162 40.9986C19.7687 42.0699 17.6403 42.5621 15.3381 42.6707C15.4322 40.3834 15.9317 38.2481 17.0032 36.2865C18.5742 37.8572 20.1379 39.4135 21.7162 40.9986Z" fill="#7A5FFF"/>
<path d="M36.9627 23.1636C36.9627 24.3362 36.0216 25.2482 34.8488 25.2482C33.6615 25.2482 32.7493 24.3362 32.7348 23.1636C32.7348 21.991 33.676 21.0356 34.8488 21.0356C36.0216 21.0356 36.9772 22.0127 36.9627 23.1636Z" fill="#7A5FFF"/>
</svg>
