<?xml version="1.0" encoding="utf-8"?>
<!-- Generator: Adobe Illustrator 19.0.0, SVG Export Plug-In . SVG Version: 6.00 Build 0)  -->
<svg version="1.1" id="Layer_1" xmlns="http://www.w3.org/2000/svg" xmlns:xlink="http://www.w3.org/1999/xlink" x="0px" y="0px"
	 viewBox="-226 228 58 58" style="enable-background:new -226 228 58 58;" xml:space="preserve">
<style type="text/css">
	.st0{fill:#DEFCFF;}
	.st1{fill:#58AEBC;}
</style>
<circle class="st0" cx="-197" cy="257" r="29"/>
<path class="st1" d="M-183,242c-0.2-0.1-0.4,0-0.6,0c-0.4,0-0.8,0.1-1.2,0.1c-0.2,0-0.5,0-0.7,0.1c-4.6,0.6-8.7,2.4-12.4,5.3
	c-4.1,3.3-7.1,7.4-9.4,12.1c-0.3,0.6-0.2,1.1,0.3,1.6l5.9,5.9c0.5,0.5,1.1,0.6,1.7,0.3c2.8-1.4,5.4-3,7.8-5
	c4.1-3.5,7.1-7.7,8.7-12.9c0.6-2,0.9-4,1-6C-182,242.7-182.4,242.2-183,242z M-191.2,255.2c-2.2,0-4-1.8-4-4c0-2.3,1.8-4,4-4
	s4.1,1.8,4,4C-187.1,253.4-188.9,255.2-191.2,255.2z"/>
<path class="st1" d="M-201.5,248.4c-2.3,2.3-4.2,4.9-5.8,7.6c-0.5-0.2-0.9-0.3-1.4-0.4c-0.9-0.3-1.9-0.6-2.8-0.9
	c-0.5-0.2-0.7-0.7-0.3-1.1c1.7-1.7,3.3-3.3,5.3-4.7c0.3-0.2,0.6-0.4,0.9-0.5c0.7-0.4,1.5-0.6,2.3-0.4
	C-202.8,248.1-202.2,248.2-201.5,248.4z"/>
<path class="st1" d="M-196.1,267.3c2.8-1.6,5.3-3.5,7.6-5.8c0.2,0.7,0.3,1.3,0.5,1.9c0.2,1.1-0.2,2-0.7,2.8
	c-0.9,1.4-2.1,2.7-3.2,3.9c-0.6,0.6-1.1,1.2-1.7,1.7c-0.4,0.4-0.9,0.3-1-0.2C-195.1,270.2-195.6,268.8-196.1,267.3z"/>
<path class="st1" d="M-204.3,269c-1.9,1.1-4.1,1.6-6.4,1.7c0.1-2.3,0.6-4.4,1.7-6.4C-207.4,265.9-205.9,267.4-204.3,269z"/>
<path class="st1" d="M-189,251.2c0,1.2-0.9,2.1-2.1,2.1c-1.2,0-2.1-0.9-2.1-2.1c0-1.2,0.9-2.1,2.1-2.1S-189,250-189,251.2z"/>
</svg>
