<?xml version="1.0" encoding="utf-8"?>
<!-- Generator: Adobe Illustrator 19.0.0, SVG Export Plug-In . SVG Version: 6.00 Build 0)  -->
<svg version="1.1" id="Layer_1" xmlns="http://www.w3.org/2000/svg" xmlns:xlink="http://www.w3.org/1999/xlink" x="0px" y="0px"
	 viewBox="-226 228 58 58" style="enable-background:new -226 228 58 58;" xml:space="preserve">
<style type="text/css">
	.st0{fill:#DEFCFF;}
	.st1{fill:#58AEBC;}
</style>
<circle class="st0" cx="-197" cy="257" r="29"/>
<path class="st1" d="M-184.6,243c0.5,0.2,0.6,0.6,0.6,1.1c0,0.9,0,1.8,0,2.8c0,0.6-0.3,0.9-0.9,0.9c-1,0-2,0-3,0
	c-0.6,0-0.9-0.3-0.9-0.9c0-0.2,0-0.4,0-0.7c-1.1,0-2.1,0-3.2,0c0.3,0.2,0.5,0.3,0.7,0.5c2.2,1.7,3.5,4,3.9,6.7
	c0.1,0.5,0.2,0.9,0.7,1.2c1,0.5,1.3,1.7,0.9,2.8c-0.4,1-1.4,1.6-2.5,1.5c-1-0.1-1.9-0.9-2.1-1.9c-0.2-1.1,0.3-2.1,1.3-2.6
	c0.1-0.1,0.2-0.1,0.2-0.3c-0.3-2.5-1.3-4.5-3.3-6.1c-0.9-0.7-2-1.2-3.1-1.6c-0.1,0-0.2,0-0.3,0.1c-1,1.5-3,1.5-4,0
	c-0.1-0.1-0.2-0.2-0.3-0.1c-3.3,0.9-5.8,3.8-6.3,7.2c0,0.4-0.1,0.6,0.4,0.8c0.9,0.5,1.2,1.4,1.1,2.4c-0.2,0.9-0.9,1.7-1.8,1.8
	c-1,0.2-1.8-0.1-2.4-1c-0.8-1.2-0.4-2.9,0.9-3.5c0.2-0.1,0.3-0.2,0.3-0.5c0.3-2.6,1.3-4.8,3.2-6.6c0.4-0.4,0.9-0.8,1.4-1.2
	c-1,0-2.1,0-3.1,0c0,0.2,0,0.5,0,0.7c0,0.6-0.3,0.9-0.9,0.9c-0.9,0-1.9,0-2.8,0c-0.5,0-0.9-0.1-1.1-0.6c0-1.2,0-2.4,0-3.6
	c0.2-0.2,0.4-0.4,0.6-0.6c1.2,0,2.4,0,3.6,0c0.7,0.3,0.6,1,0.6,1.6c0.1,0,0.2,0,0.3,0c1.9,0,3.9,0,5.8,0c0.3,0,0.4,0,0.5-0.3
	c0-0.2,0.2-0.3,0.3-0.4c0.4-0.5,0.9-0.7,1.5-0.9c0.2,0,0.4,0,0.6,0c0,0,0.1,0,0.1,0c0.8,0.2,1.4,0.6,1.8,1.4c0,0.1,0.2,0.1,0.3,0.1
	c2,0,4,0,6,0c0.1,0,0.2,0,0.3,0c0-0.6-0.2-1.3,0.6-1.6C-187,243-185.8,243-184.6,243z"/>
<path class="st1" d="M-210.4,243c-0.2,0.2-0.4,0.4-0.6,0.6c0-0.2,0-0.4,0-0.6C-210.8,243-210.6,243-210.4,243z"/>
<path class="st1" d="M-198.3,250c0,1.4,0,2.8,0,4.2c0,1,0,2.1,0,3.1c0,0.2,0,0.2-0.2,0.3c-0.9,0.4-1.5,1.4-1.4,2.3
	c0.1,1.1,0.8,1.9,1.8,2.2c1.1,0.3,2.4-0.4,2.8-1.4c0.4-1.2-0.1-2.5-1.2-3c-0.2-0.1-0.3-0.2-0.3-0.4c0-2.3,0-4.6,0-6.9
	c0-0.1,0-0.2,0-0.3c0.1,0.1,0.1,0.1,0.2,0.2c2,3,4,6,6,8.9c0.3,0.5,0.3,0.8-0.1,1.2c-1.4,1.4-2.3,3.2-2.7,5.1c0,0,0,0.1,0,0.1
	c-0.1,0-0.1,0-0.2,0c-0.6-0.1-1.1-0.3-1.7-0.3c-1.5,0-3,0-4.5,0c-0.6,0-1.2,0.2-1.9,0.2c-0.1-0.3-0.1-0.6-0.2-0.9
	c-0.4-1.6-1.2-3-2.4-4.2c-0.5-0.5-0.5-0.8-0.1-1.3c2-2.9,3.9-5.9,5.9-8.8C-198.4,250.2-198.4,250.1-198.3,250z"/>
<path class="st1" d="M-197.5,270c-1.5,0-3,0-4.5,0c-0.1,0-0.3,0-0.4-0.1c-0.4-0.1-0.6-0.6-0.5-1c0.5-1.3,1.6-2.2,3-2.2
	c1.6,0,3.1,0,4.7,0c1.4,0,2.5,0.8,3,2.1c0.2,0.5-0.1,1-0.7,1.1c-0.1,0-0.2,0-0.3,0C-194.6,270-196,270-197.5,270z"/>
<path class="st1" d="M-196.7,259.7c0,0.4-0.3,0.8-0.8,0.8c-0.4,0-0.8-0.3-0.8-0.8c0-0.4,0.3-0.8,0.8-0.8
	C-197.1,258.9-196.7,259.2-196.7,259.7z"/>
</svg>
