<svg width="58" height="58" viewBox="0 0 58 58" fill="none" xmlns="http://www.w3.org/2000/svg">
<circle cx="29" cy="29" r="29" fill="#F7F5FF"/>
<path d="M41.4127 15.0132C41.8674 15.224 42.0124 15.5864 41.9992 16.0739C41.9728 16.9963 41.9926 17.9187 41.9926 18.8411C41.9926 19.4473 41.6829 19.7504 41.0898 19.757C40.0881 19.757 39.0864 19.757 38.0847 19.757C37.518 19.757 37.2017 19.4407 37.1951 18.8807C37.1951 18.6633 37.1951 18.4392 37.1951 18.2021C36.1407 18.2021 35.0929 18.2021 34.0055 18.2021C34.256 18.3865 34.4866 18.5447 34.7107 18.716C36.8985 20.429 38.2034 22.6691 38.6119 25.41C38.691 25.9239 38.7635 26.2994 39.3171 26.5959C40.2726 27.1032 40.5889 28.3419 40.1869 29.396C39.8179 30.358 38.7437 30.9971 37.7223 30.8587C36.6745 30.7204 35.8441 29.9561 35.6662 28.981C35.4685 27.8741 35.9628 26.8924 36.971 26.3851C37.0831 26.3258 37.1424 26.2796 37.1292 26.1281C36.859 23.6574 35.7848 21.6281 33.8474 20.0666C32.9314 19.3287 31.8967 18.828 30.7698 18.5117C30.6315 18.4722 30.5721 18.5183 30.4997 18.6303C29.5243 20.1325 27.4749 20.1325 26.5061 18.6303C26.4205 18.4985 26.3546 18.4788 26.2096 18.5183C22.875 19.4275 20.3643 22.2936 19.9095 25.7064C19.8634 26.0688 19.8568 26.3126 20.2654 26.5366C21.1419 27.0242 21.5043 27.9729 21.3264 28.9744C21.1682 29.8507 20.4038 30.6479 19.5076 30.8126C18.4993 31.0037 17.6689 30.6742 17.0627 29.8441C16.2191 28.6845 16.6739 26.9846 17.9853 26.3851C18.2093 26.2862 18.2884 26.1611 18.3148 25.9239C18.5652 23.3411 19.6262 21.1406 21.5109 19.3485C21.9524 18.9268 22.4533 18.571 22.9343 18.1823C21.9129 18.1823 20.8783 18.1823 19.7975 18.1823C19.7975 18.3997 19.7975 18.6369 19.7975 18.8675C19.7909 19.4341 19.4812 19.7438 18.9079 19.7438C17.9589 19.7438 17.0099 19.724 16.061 19.7504C15.5733 19.7635 15.2109 19.6186 15 19.164C15 17.9714 15 16.7723 15 15.5798C15.1911 15.3887 15.3888 15.1911 15.5799 15C16.7925 15 18.005 15 19.2176 15C19.9557 15.3097 19.7777 15.9751 19.8041 16.5813C19.9161 16.5813 20.015 16.5813 20.1072 16.5813C22.0381 16.5813 23.969 16.5747 25.9064 16.5878C26.1569 16.5878 26.3348 16.5681 26.4205 16.2848C26.4666 16.1332 26.5918 16.0015 26.6906 15.8697C27.0729 15.3821 27.6001 15.1515 28.1866 15.0066C28.3974 15.0066 28.6083 15.0066 28.8192 15.0066C28.8522 15.0198 28.8851 15.0395 28.9181 15.0461C29.7418 15.2174 30.3217 15.6852 30.6776 16.4495C30.7105 16.522 30.8687 16.5813 30.9675 16.5813C32.9643 16.5878 34.9545 16.5878 36.9513 16.5878C37.0303 16.5878 37.1028 16.5878 37.2017 16.5878C37.228 15.9817 37.0501 15.3163 37.7882 15.0066C38.9876 15.0132 40.2001 15.0132 41.4127 15.0132Z" fill="#7A5FFF"/>
<path d="M15.5799 15.0132C15.3888 15.2042 15.1911 15.4019 15 15.593C15 15.4019 15 15.2042 15 15.0132C15.1911 15.0132 15.3822 15.0132 15.5799 15.0132Z" fill="white"/>
<path d="M27.7055 21.9641C27.7055 23.4136 27.7055 24.784 27.7055 26.1545C27.7055 27.1823 27.7055 28.2101 27.7055 29.2379C27.7055 29.3895 27.666 29.4685 27.521 29.5344C26.605 29.9561 26.0448 30.8917 26.1305 31.8141C26.2359 32.9078 26.9081 33.7116 27.9427 33.9817C29.0499 34.265 30.3217 33.5996 30.6974 32.5322C31.1191 31.3397 30.6315 30.0813 29.5309 29.5739C29.3332 29.4817 29.2739 29.3763 29.2739 29.1654C29.2805 26.8792 29.2805 24.5996 29.2805 22.3133C29.2805 22.2277 29.2805 22.1354 29.2805 22.0037C29.3464 22.0827 29.3925 22.1288 29.4321 22.1816C31.4223 25.1596 33.4058 28.1376 35.3894 31.1223C35.6926 31.5769 35.6926 31.9063 35.3301 32.2884C33.9396 33.7313 33.0698 35.4444 32.6744 37.4012C32.6678 37.4407 32.6546 37.4868 32.6348 37.5461C32.5623 37.5264 32.503 37.5066 32.4371 37.5C31.877 37.4078 31.3168 37.2496 30.7567 37.2365C29.2476 37.1969 27.7319 37.1969 26.2228 37.2365C25.5967 37.2496 24.9772 37.3946 24.3314 37.4802C24.2721 37.2233 24.1996 36.9004 24.1074 36.5842C23.6592 34.9898 22.875 33.593 21.735 32.3873C21.2737 31.9063 21.2605 31.6164 21.6295 31.0564C23.5868 28.1179 25.544 25.1859 27.5012 22.2474C27.5539 22.1618 27.6066 22.0959 27.7055 21.9641Z" fill="#7A5FFF"/>
<path d="M28.4897 42C27.007 42 25.5242 42 24.0349 42C23.8899 42 23.7317 41.9868 23.5933 41.9407C23.1782 41.7958 22.9871 41.3741 23.132 40.959C23.5868 39.6676 24.7598 38.8045 26.1371 38.7914C27.7121 38.7782 29.2805 38.7716 30.8555 38.7914C32.213 38.8045 33.3334 39.6215 33.8276 40.9195C34.0319 41.44 33.709 41.9473 33.1488 41.9934C33.0632 42 32.9709 42 32.8852 42C31.4223 42 29.9593 42 28.4897 42Z" fill="#7A5FFF"/>
<path d="M29.2805 31.6625C29.2871 32.0908 28.9312 32.4531 28.4963 32.4597C28.068 32.4663 27.7055 32.1105 27.6989 31.6757C27.6923 31.2474 28.0482 30.8851 28.4831 30.8785C28.9181 30.8785 29.2805 31.2343 29.2805 31.6625Z" fill="#7A5FFF"/>
</svg>
