<svg width="58" height="58" viewBox="0 0 58 58" fill="none" xmlns="http://www.w3.org/2000/svg">
<circle cx="29" cy="29" r="29" fill="#F7F5FF"/>
<path d="M12.8887 26.3355C13.0565 26.1087 13.1991 25.8651 13.3921 25.6719C16.8577 22.303 20.9862 20.2028 25.7776 19.5643C33.036 18.5982 39.3629 20.6648 44.6746 25.7391C44.8508 25.9071 44.9682 26.1339 45.1109 26.3355C45.1109 26.4868 45.1109 26.6296 45.1109 26.7808C44.9347 27.0076 44.7836 27.2597 44.5822 27.4697C43.7935 28.2762 42.9879 29.0743 42.1824 29.8808C41.6705 30.3933 41.167 30.4017 40.6468 29.8976C38.1798 27.4781 35.2512 25.9155 31.8444 25.3694C26.3482 24.4957 21.54 25.9659 17.4619 29.7884C17.4031 29.8472 17.3444 29.906 17.2857 29.9648C16.8325 30.3765 16.3207 30.3764 15.8843 29.948C14.9781 29.0575 14.0886 28.1586 13.1991 27.2513C13.0733 27.1252 12.9894 26.9404 12.8887 26.7892C12.8887 26.6296 12.8887 26.4868 12.8887 26.3355Z" fill="#7A5FFF"/>
<path d="M28.6977 27.1252C32.9688 27.1757 36.384 28.5702 39.2371 31.3258C39.7154 31.7962 39.7237 32.3339 39.2454 32.8128C38.3811 33.6865 37.5169 34.5518 36.6442 35.4171C36.1575 35.8959 35.654 35.9043 35.1589 35.4255C33.1954 33.552 30.8458 32.7287 28.1523 32.964C26.1552 33.1404 24.4266 33.9553 22.9581 35.3247C22.312 35.9295 21.8757 35.9295 21.2463 35.2995C20.424 34.4762 19.6016 33.6529 18.7793 32.8296C18.2758 32.3255 18.2842 31.7962 18.8045 31.2922C21.0449 29.1163 23.7049 27.7721 26.7929 27.2933C27.5061 27.1841 28.253 27.1588 28.6977 27.1252Z" fill="#7A5FFF"/>
<path d="M28.9998 34.9382C30.7955 34.9634 32.3563 35.5683 33.6653 36.8033C34.2107 37.3157 34.2191 37.845 33.6821 38.3826C32.373 39.6932 31.064 41.0122 29.7466 42.3227C29.2515 42.8184 28.7313 42.8184 28.2362 42.3227C26.9272 41.0122 25.6097 39.7016 24.3007 38.3826C23.7721 37.8534 23.7805 37.3241 24.3259 36.8033C25.6433 35.5683 27.2041 34.955 28.9998 34.9382Z" fill="#7A5FFF"/>
</svg>
