<?xml version="1.0" encoding="utf-8"?>
<!-- Generator: Adobe Illustrator 19.0.0, SVG Export Plug-In . SVG Version: 6.00 Build 0)  -->
<svg version="1.1" id="Layer_1" xmlns="http://www.w3.org/2000/svg" xmlns:xlink="http://www.w3.org/1999/xlink" x="0px" y="0px"
	 viewBox="-226 228 58 58" style="enable-background:new -226 228 58 58;" xml:space="preserve">
<style type="text/css">
	.st0{fill:#DEFCFF;}
	.st1{fill:#58AEBC;}
</style>
<circle class="st0" cx="-197" cy="257" r="29"/>
<path class="st1" d="M-213.1,254.3c0.2-0.2,0.3-0.5,0.5-0.7c3.5-3.4,7.6-5.5,12.4-6.1c7.3-1,13.6,1.1,18.9,6.2
	c0.2,0.2,0.3,0.4,0.4,0.6c0,0.2,0,0.3,0,0.4c-0.2,0.2-0.3,0.5-0.5,0.7c-0.8,0.8-1.6,1.6-2.4,2.4c-0.5,0.5-1,0.5-1.5,0
	c-2.5-2.4-5.4-4-8.8-4.5c-5.5-0.9-10.3,0.6-14.4,4.4c-0.1,0.1-0.1,0.1-0.2,0.2c-0.5,0.4-1,0.4-1.4,0c-0.9-0.9-1.8-1.8-2.7-2.7
	c-0.1-0.1-0.2-0.3-0.3-0.5C-213.1,254.6-213.1,254.5-213.1,254.3z"/>
<path class="st1" d="M-197.3,255.1c4.3,0.1,7.7,1.4,10.5,4.2c0.5,0.5,0.5,1,0,1.5c-0.9,0.9-1.7,1.7-2.6,2.6c-0.5,0.5-1,0.5-1.5,0
	c-2-1.9-4.3-2.7-7-2.5c-2,0.2-3.7,1-5.2,2.4c-0.6,0.6-1.1,0.6-1.7,0c-0.8-0.8-1.6-1.6-2.5-2.5c-0.5-0.5-0.5-1,0-1.5
	c2.2-2.2,4.9-3.5,8-4C-198.5,255.2-197.7,255.2-197.3,255.1z"/>
<path class="st1" d="M-197,262.9c1.8,0,3.4,0.6,4.7,1.9c0.5,0.5,0.6,1,0,1.6c-1.3,1.3-2.6,2.6-3.9,3.9c-0.5,0.5-1,0.5-1.5,0
	c-1.3-1.3-2.6-2.6-3.9-3.9c-0.5-0.5-0.5-1.1,0-1.6C-200.4,263.6-198.8,263-197,262.9z"/>
</svg>
