<svg width="58" height="58" viewBox="0 0 58 58" fill="none" xmlns="http://www.w3.org/2000/svg">
<circle cx="29" cy="29" r="29" fill="#F7F5FF"/>
<path d="M30.5234 25.9391C29.4943 25.9391 28.4922 25.9391 27.4901 25.9391C27.4833 25.8985 27.4766 25.8714 27.4766 25.8443C27.4766 22.8257 27.4766 19.8071 27.4766 16.7885C27.4766 16.3283 27.8016 16.0102 28.262 16.0034C28.7021 15.9966 29.1422 16.0034 29.5823 16.0034C30.2458 16.0034 30.5234 16.2809 30.5234 16.9374C30.5234 19.8477 30.5234 22.7513 30.5234 25.6616C30.5234 25.7496 30.5234 25.8376 30.5234 25.9391ZM22.8927 33.5533C21.8703 33.5533 20.875 33.5533 19.8797 33.5533C19.8797 30.5076 19.8797 27.4755 19.8797 24.4501C20.8953 24.4501 21.8906 24.4501 22.8927 24.4501C22.8927 27.4822 22.8927 30.5076 22.8927 33.5533ZM35.1073 33.5601C35.1073 30.5076 35.1073 27.4822 35.1073 24.4569C36.1229 24.4569 37.125 24.4569 38.1203 24.4569C38.1203 27.5025 38.1203 30.5279 38.1203 33.5601C37.1182 33.5601 36.1229 33.5601 35.1073 33.5601ZM33.5568 30.5076C30.5031 30.5076 27.4766 30.5076 24.45 30.5076C24.45 29.4924 24.45 28.4907 24.45 27.489C27.4969 27.489 30.5234 27.489 33.5568 27.489C33.5568 28.4975 33.5568 29.4924 33.5568 30.5076ZM19.8594 18.3316C19.8594 17.7834 19.8458 17.2555 19.8594 16.7343C19.8729 16.335 20.1911 16.0169 20.5974 16.0102C21.1187 15.9966 21.6469 15.9966 22.1682 16.0102C22.5271 16.0169 22.8521 16.2673 22.8724 16.6193C22.913 17.1878 22.8859 17.7563 22.8859 18.3316C21.8771 18.3316 20.8818 18.3316 19.8594 18.3316ZM35.0938 18.3316C35.0938 17.7699 35.0802 17.2352 35.1005 16.6937C35.1141 16.3147 35.4391 16.0169 35.825 16.0102C36.3463 15.9966 36.8745 15.9966 37.3958 16.0102C37.775 16.0169 38.1068 16.2876 38.1203 16.6599C38.1474 17.2149 38.1271 17.7699 38.1271 18.3316C37.1182 18.3316 36.1229 18.3316 35.0938 18.3316Z" fill="white"/>
<path d="M29.9615 42C30.4016 41.797 30.5302 41.4518 30.5302 40.978C30.5167 38.1083 30.5234 35.2454 30.5234 32.3756C30.5234 32.2741 30.5234 32.1794 30.5234 32.0643C29.5078 32.0643 28.5125 32.0643 27.4766 32.0643C27.4766 32.159 27.4766 32.2538 27.4766 32.3486C27.4766 35.225 27.4833 38.1015 27.4698 40.978C27.4698 41.4518 27.5984 41.797 28.0385 42C28.675 42 29.3182 42 29.9615 42Z" fill="#7A5FFF"/>
<path d="M16 37.5804C16.2031 38.0203 16.5484 38.1489 17.0224 38.1489C19.8932 38.1354 22.7573 38.1421 25.6281 38.1421C25.7297 38.1421 25.8245 38.1421 25.9396 38.1421C25.9396 37.1269 25.9396 36.132 25.9396 35.0964C25.8448 35.0964 25.75 35.0964 25.6552 35.0964C22.7776 35.0964 19.9 35.1032 17.0224 35.0897C16.5484 35.0897 16.2031 35.2183 16 35.6582C16 36.2944 16 36.9374 16 37.5804Z" fill="#7A5FFF"/>
<path d="M42 35.6514C41.7969 35.2115 41.4516 35.0829 40.9776 35.0829C38.1068 35.0965 35.2427 35.0897 32.3719 35.0897C32.2703 35.0897 32.1755 35.0897 32.0604 35.0897C32.0604 36.1049 32.0604 37.0998 32.0604 38.1354C32.1552 38.1354 32.25 38.1354 32.3448 38.1354C35.2224 38.1354 38.1 38.1286 40.9776 38.1421C41.4516 38.1421 41.7969 38.0203 42 37.5736C42 36.9374 42 36.2944 42 35.6514Z" fill="#7A5FFF"/>
<path d="M16 22.3519C16.2031 22.7919 16.5484 22.9205 17.0224 22.9205C19.8932 22.9069 22.7573 22.9137 25.6281 22.9137C25.7297 22.9137 25.8245 22.9137 25.9396 22.9137C25.9396 21.8985 25.9396 20.9036 25.9396 19.868C25.8448 19.868 25.75 19.868 25.6552 19.868C22.7776 19.868 19.9 19.8748 17.0224 19.8613C16.5484 19.8613 16.2031 19.9899 16 20.4298C16 21.066 16 21.709 16 22.3519Z" fill="#7A5FFF"/>
<path d="M42 20.423C41.7969 19.9831 41.4516 19.8545 40.9776 19.8545C38.1068 19.868 35.2427 19.8613 32.3719 19.8613C32.2703 19.8613 32.1755 19.8613 32.0604 19.8613C32.0604 20.8765 32.0604 21.8714 32.0604 22.9069C32.1552 22.9069 32.25 22.9069 32.3448 22.9069C35.2224 22.9069 38.1 22.9002 40.9776 22.9137C41.4516 22.9137 41.7969 22.7919 42 22.3452C42 21.709 42 21.066 42 20.423Z" fill="#7A5FFF"/>
<path d="M22.3443 42C22.7844 41.797 22.9401 41.4518 22.9063 40.978C22.8792 40.5516 22.8995 40.1184 22.8995 39.6785C21.8839 39.6785 20.8885 39.6785 19.8526 39.6785C19.8526 39.9019 19.8526 40.1387 19.8526 40.3689C19.8526 40.5719 19.8661 40.775 19.8526 40.978C19.812 41.4518 19.9745 41.797 20.4146 42C21.0578 42 21.701 42 22.3443 42Z" fill="#7A5FFF"/>
<path d="M37.5786 42C38.0188 41.797 38.1745 41.4518 38.1406 40.978C38.1135 40.5516 38.1339 40.1184 38.1339 39.6785C37.1182 39.6785 36.1229 39.6785 35.087 39.6785C35.087 39.9019 35.087 40.1387 35.087 40.3689C35.087 40.5719 35.1005 40.775 35.087 40.978C35.0464 41.4518 35.2089 41.797 35.649 42C36.2922 42 36.9354 42 37.5786 42Z" fill="#7A5FFF"/>
<path d="M16 29.9662C16.2031 30.4061 16.5484 30.5618 17.0224 30.5279C17.449 30.5008 17.8823 30.5212 18.3224 30.5212C18.3224 29.5059 18.3224 28.511 18.3224 27.4755C18.099 27.4755 17.862 27.4755 17.6318 27.4755C17.4286 27.4755 17.2255 27.489 17.0224 27.4755C16.5484 27.4349 16.2031 27.5973 16 28.0372C16 28.6802 16 29.3232 16 29.9662Z" fill="#7A5FFF"/>
<path d="M42 28.0372C41.7969 27.5973 41.4516 27.4416 40.9776 27.4755C40.551 27.5025 40.1177 27.4822 39.6776 27.4822C39.6776 28.4975 39.6776 29.4924 39.6776 30.5279C39.901 30.5279 40.138 30.5279 40.3682 30.5279C40.5713 30.5279 40.7745 30.5144 40.9776 30.5279C41.4516 30.5685 41.7969 30.4061 42 29.9662C42 29.3232 42 28.6802 42 28.0372Z" fill="#7A5FFF"/>
<path d="M30.5234 25.9391C30.5234 25.8376 30.5234 25.7563 30.5234 25.6684C30.5234 22.758 30.5234 19.8545 30.5234 16.9442C30.5234 16.2809 30.2458 16.0102 29.5823 16.0102C29.1422 16.0102 28.7021 16.0034 28.262 16.0102C27.8016 16.0169 27.4766 16.335 27.4766 16.7953C27.4766 19.8139 27.4766 22.8325 27.4766 25.8511C27.4766 25.8782 27.4833 25.8985 27.4901 25.9459C28.4922 25.9391 29.4875 25.9391 30.5234 25.9391Z" fill="#7A5FFF"/>
<path d="M22.8927 33.5533C22.8927 30.5076 22.8927 27.4822 22.8927 24.4501C21.8839 24.4501 20.8885 24.4501 19.8797 24.4501C19.8797 27.4755 19.8797 30.5076 19.8797 33.5533C20.875 33.5533 21.8771 33.5533 22.8927 33.5533Z" fill="#7A5FFF"/>
<path d="M35.1073 33.5601C36.1229 33.5601 37.1182 33.5601 38.1203 33.5601C38.1203 30.5212 38.1203 27.5025 38.1203 24.4569C37.125 24.4569 36.1229 24.4569 35.1073 24.4569C35.1073 27.4755 35.1073 30.5076 35.1073 33.5601Z" fill="#7A5FFF"/>
<path d="M33.5568 30.5076C33.5568 29.4924 33.5568 28.4975 33.5568 27.489C30.5167 27.489 27.4969 27.489 24.45 27.489C24.45 28.4839 24.45 29.4856 24.45 30.5076C27.4766 30.5076 30.5099 30.5076 33.5568 30.5076Z" fill="#7A5FFF"/>
<path d="M19.8594 18.3316C20.8818 18.3316 21.8771 18.3316 22.8927 18.3316C22.8927 17.7563 22.9198 17.1878 22.8792 16.6193C22.8589 16.2673 22.5271 16.0169 22.175 16.0102C21.6536 15.9966 21.1255 15.9966 20.6042 16.0102C20.1979 16.0169 19.8797 16.3283 19.8661 16.7343C19.8526 17.2555 19.8594 17.7834 19.8594 18.3316Z" fill="#7A5FFF"/>
<path d="M35.0938 18.3316C36.1229 18.3316 37.1115 18.3316 38.1271 18.3316C38.1271 17.7699 38.1474 17.2149 38.1203 16.6599C38.1 16.2944 37.7682 16.0169 37.3958 16.0102C36.8745 15.9966 36.3463 15.9966 35.825 16.0102C35.4391 16.0169 35.1141 16.3147 35.1005 16.6937C35.0802 17.2352 35.0938 17.7699 35.0938 18.3316Z" fill="#7A5FFF"/>
</svg>
