<?xml version="1.0" encoding="utf-8"?>
<!-- Generator: Adobe Illustrator 19.0.0, SVG Export Plug-In . SVG Version: 6.00 Build 0)  -->
<svg version="1.1" id="Layer_1" xmlns="http://www.w3.org/2000/svg" xmlns:xlink="http://www.w3.org/1999/xlink" x="0px" y="0px"
	 viewBox="-226 228 58 58" style="enable-background:new -226 228 58 58;" xml:space="preserve">
<style type="text/css">
	.st0{fill:#DEFCFF;}
	.st1{fill:#58AEBC;}
</style>
<circle class="st0" cx="-197" cy="257" r="29"/>
<path class="st1" d="M-195.5,253.9c-1,0-2,0-3,0c0,0,0-0.1,0-0.1c0-3,0-6,0-9.1c0-0.5,0.3-0.8,0.8-0.8c0.4,0,0.9,0,1.3,0
	c0.7,0,0.9,0.3,0.9,0.9c0,2.9,0,5.8,0,8.7C-195.5,253.7-195.5,253.8-195.5,253.9z M-203.1,261.6c-1,0-2,0-3,0c0-3,0-6.1,0-9.1
	c1,0,2,0,3,0C-203.1,255.5-203.1,258.5-203.1,261.6z M-190.9,261.6c0-3.1,0-6.1,0-9.1c1,0,2,0,3,0c0,3,0,6.1,0,9.1
	C-188.9,261.6-189.9,261.6-190.9,261.6z M-192.4,258.5c-3.1,0-6.1,0-9.1,0c0-1,0-2,0-3c3,0,6.1,0,9.1,0
	C-192.4,256.5-192.4,257.5-192.4,258.5z M-206.1,246.3c0-0.5,0-1.1,0-1.6c0-0.4,0.3-0.7,0.7-0.7c0.5,0,1,0,1.6,0
	c0.4,0,0.7,0.3,0.7,0.6c0,0.6,0,1.1,0,1.7C-204.1,246.3-205.1,246.3-206.1,246.3z M-190.9,246.3c0-0.6,0-1.1,0-1.6
	c0-0.4,0.3-0.7,0.7-0.7c0.5,0,1,0,1.6,0c0.4,0,0.7,0.3,0.7,0.6c0,0.6,0,1.1,0,1.7C-188.9,246.3-189.9,246.3-190.9,246.3z"/>
<path class="st1" d="M-196,270c0.4-0.2,0.6-0.5,0.6-1c0-2.9,0-5.7,0-8.6c0-0.1,0-0.2,0-0.3c-1,0-2,0-3,0c0,0.1,0,0.2,0,0.3
	c0,2.9,0,5.8,0,8.6c0,0.5,0.1,0.8,0.6,1C-197.3,270-196.7,270-196,270z"/>
<path class="st1" d="M-210,265.6c0.2,0.4,0.5,0.6,1,0.6c2.9,0,5.7,0,8.6,0c0.1,0,0.2,0,0.3,0c0-1,0-2,0-3c-0.1,0-0.2,0-0.3,0
	c-2.9,0-5.8,0-8.6,0c-0.5,0-0.8,0.1-1,0.6C-210,264.3-210,264.9-210,265.6z"/>
<path class="st1" d="M-184,263.7c-0.2-0.4-0.5-0.6-1-0.6c-2.9,0-5.7,0-8.6,0c-0.1,0-0.2,0-0.3,0c0,1,0,2,0,3c0.1,0,0.2,0,0.3,0
	c2.9,0,5.8,0,8.6,0c0.5,0,0.8-0.1,1-0.6C-184,264.9-184,264.3-184,263.7z"/>
<path class="st1" d="M-210,250.4c0.2,0.4,0.5,0.6,1,0.6c2.9,0,5.7,0,8.6,0c0.1,0,0.2,0,0.3,0c0-1,0-2,0-3c-0.1,0-0.2,0-0.3,0
	c-2.9,0-5.8,0-8.6,0c-0.5,0-0.8,0.1-1,0.6C-210,249.1-210,249.7-210,250.4z"/>
<path class="st1" d="M-184,248.4c-0.2-0.4-0.5-0.6-1-0.6c-2.9,0-5.7,0-8.6,0c-0.1,0-0.2,0-0.3,0c0,1,0,2,0,3c0.1,0,0.2,0,0.3,0
	c2.9,0,5.8,0,8.6,0c0.5,0,0.8-0.1,1-0.6C-184,249.7-184,249.1-184,248.4z"/>
<path class="st1" d="M-203.7,270c0.4-0.2,0.6-0.5,0.6-1c0-0.4,0-0.9,0-1.3c-1,0-2,0-3,0c0,0.2,0,0.5,0,0.7c0,0.2,0,0.4,0,0.6
	c0,0.5,0.1,0.8,0.6,1C-204.9,270-204.3,270-203.7,270z"/>
<path class="st1" d="M-188.4,270c0.4-0.2,0.6-0.5,0.6-1c0-0.4,0-0.9,0-1.3c-1,0-2,0-3,0c0,0.2,0,0.5,0,0.7c0,0.2,0,0.4,0,0.6
	c0,0.5,0.1,0.8,0.6,1C-189.7,270-189.1,270-188.4,270z"/>
<path class="st1" d="M-210,258c0.2,0.4,0.5,0.6,1,0.6c0.4,0,0.9,0,1.3,0c0-1,0-2,0-3c-0.2,0-0.5,0-0.7,0c-0.2,0-0.4,0-0.6,0
	c-0.5,0-0.8,0.1-1,0.6C-210,256.7-210,257.3-210,258z"/>
<path class="st1" d="M-184,256c-0.2-0.4-0.5-0.6-1-0.6c-0.4,0-0.9,0-1.3,0c0,1,0,2,0,3c0.2,0,0.5,0,0.7,0c0.2,0,0.4,0,0.6,0
	c0.5,0,0.8-0.1,1-0.6C-184,257.3-184,256.7-184,256z"/>
<path class="st1" d="M-195.5,253.9c0-0.1,0-0.2,0-0.3c0-2.9,0-5.8,0-8.7c0-0.7-0.3-0.9-0.9-0.9c-0.4,0-0.9,0-1.3,0
	c-0.5,0-0.8,0.3-0.8,0.8c0,3,0,6,0,9.1c0,0,0,0,0,0.1C-197.5,253.9-196.5,253.9-195.5,253.9z"/>
<path class="st1" d="M-203.1,261.6c0-3,0-6.1,0-9.1c-1,0-2,0-3,0c0,3,0,6.1,0,9.1C-205.1,261.6-204.1,261.6-203.1,261.6z"/>
<path class="st1" d="M-190.9,261.6c1,0,2,0,3,0c0-3,0-6.1,0-9.1c-1,0-2,0-3,0C-190.9,255.5-190.9,258.5-190.9,261.6z"/>
<path class="st1" d="M-192.4,258.5c0-1,0-2,0-3c-3,0-6.1,0-9.1,0c0,1,0,2,0,3C-198.5,258.5-195.5,258.5-192.4,258.5z"/>
<path class="st1" d="M-206.1,246.3c1,0,2,0,3,0c0-0.6,0-1.1,0-1.7c0-0.4-0.4-0.6-0.7-0.6c-0.5,0-1,0-1.6,0c-0.4,0-0.7,0.3-0.7,0.7
	C-206.1,245.3-206.1,245.8-206.1,246.3z"/>
<path class="st1" d="M-190.9,246.3c1,0,2,0,3,0c0-0.6,0-1.1,0-1.7c0-0.4-0.4-0.6-0.7-0.6c-0.5,0-1,0-1.6,0c-0.4,0-0.7,0.3-0.7,0.7
	C-190.9,245.2-190.9,245.8-190.9,246.3z"/>
</svg>
