<svg width="120" height="120" viewBox="0 0 120 120" fill="none" xmlns="http://www.w3.org/2000/svg">
<circle cx="60" cy="60" r="60" fill="#DEFCFF"/>
<path d="M75.0732 30.8296C83.4143 30.8296 90.2 37.6171 90.2002 45.9604V73.2241C90.2002 81.5676 83.4144 88.355 75.0732 88.355H45.2812C36.9401 88.355 30.1543 81.5676 30.1543 73.2241V45.9604C30.1544 37.6171 36.9401 30.8296 45.2812 30.8296H75.0732ZM45.2812 36.4966C40.0655 36.4966 35.8205 40.7431 35.8203 45.9604V73.2241C35.8203 78.4416 40.0654 82.688 45.2812 82.688H75.0732C80.2891 82.688 84.5342 78.4416 84.5342 73.2241V45.9604C84.534 40.7431 80.289 36.4966 75.0732 36.4966H45.2812ZM60.1777 45.5005C67.9454 45.5006 74.2617 51.8195 74.2617 59.5894C74.2616 67.3591 67.9419 73.6771 60.1777 73.6772C52.4101 73.6772 46.0939 67.3591 46.0938 59.5894C46.0938 51.8195 52.41 45.5005 60.1777 45.5005ZM60.1777 51.1714C55.5354 51.1714 51.7589 54.9485 51.7588 59.5923C51.7588 64.2362 55.5354 68.0132 60.1777 68.0132C64.82 68.0131 68.5957 64.2361 68.5957 59.5923C68.5956 54.9486 64.8199 51.1715 60.1777 51.1714ZM75.3467 40.2603C77.5215 40.2603 79.2871 42.0273 79.2871 44.2026C79.2871 46.3781 77.518 48.1449 75.3467 48.145C73.1718 48.145 71.4053 46.3781 71.4053 44.2026C71.4053 42.0273 73.1718 40.2603 75.3467 40.2603Z" fill="#58AEBC" stroke="#58AEBC" stroke-width="0.4"/>
</svg>
