<svg width="120" height="120" viewBox="0 0 120 120" fill="none" xmlns="http://www.w3.org/2000/svg">
<circle cx="60" cy="60" r="60" fill="#DEFCFF"/>
<path d="M35.1187 38.7976C33.7037 37.4838 33 35.8576 33 33.9227C33 31.9878 33.7075 30.2901 35.1187 28.9725C36.5337 27.6588 38.3551 27 40.5868 27C42.8184 27 44.5683 27.6588 45.9796 28.9725C47.3946 30.2863 48.0983 31.9389 48.0983 33.9227C48.0983 35.9066 47.3908 37.4838 45.9796 38.7976C44.5646 40.1114 42.7695 40.7702 40.5868 40.7702C38.4041 40.7702 36.5337 40.1114 35.1187 38.7976ZM46.9091 46.3339V86.613H34.1854V46.3339H46.9091Z" fill="#58AEBC"/>
<path d="M89.2648 50.313C92.0383 53.3245 93.4232 57.4579 93.4232 62.7205V85.9017H81.3394V64.3542C81.3394 61.7003 80.6507 59.6374 79.2771 58.1693C77.9035 56.7012 76.052 55.9634 73.7338 55.9634C71.4156 55.9634 69.564 56.6974 68.1904 58.1693C66.8168 59.6374 66.1281 61.7003 66.1281 64.3542V85.9017H53.9727V46.2211H66.1281V51.4837C67.3587 49.7295 69.0184 48.3443 71.1032 47.3241C73.1881 46.304 75.5326 45.7957 78.1406 45.7957C82.7845 45.7957 86.495 47.3015 89.2648 50.3093V50.313Z" fill="#58AEBC"/>
</svg>
