<svg width="200" height="38" viewBox="0 0 200 38" fill="none" xmlns="http://www.w3.org/2000/svg">
<path d="M30.8788 4.77487C28.0945 4.77487 25.3995 4.77487 22.6152 4.77487C22.3296 6.3484 22.0262 7.94003 21.7406 9.51356C21.2409 12.317 20.7411 15.1204 20.2771 17.9238C20.1521 18.6292 19.7595 18.7377 19.1348 18.8643C13.5305 20.0581 7.94406 21.3241 2.44686 23.585C2.58965 22.6625 2.71458 21.8667 2.85737 21.0709C4.03534 14.6502 5.21332 8.22941 6.39129 1.80866C6.65901 0.343646 7.01596 0 8.5152 0C26.8987 0 45.2822 0 63.6657 0C65.3256 0 65.5933 0.325558 65.3077 1.97144C64.5938 5.98667 63.862 9.98382 63.1659 13.999C63.0767 14.5055 62.9161 14.6321 62.4342 14.6502C59.8641 14.7406 57.2939 14.8672 54.7238 15.0119C53.7957 15.0662 52.8498 15.1747 51.8324 15.247C52.475 11.684 53.0818 8.26559 53.7065 4.77487C50.7972 4.77487 47.9415 4.77487 44.9966 4.77487C44.5147 7.46978 44.015 10.2009 43.5331 12.9319C43.3903 13.7277 43.3189 14.5416 43.1404 15.3194C43.0869 15.5364 42.8192 15.862 42.6228 15.8801C41.0165 16.0428 39.3923 16.1152 37.7682 16.278C35.3051 16.5312 32.8599 16.8567 30.4148 17.1461C29.8972 17.2004 29.3617 17.2727 28.6835 17.3451C29.3974 13.149 30.1292 8.98905 30.8788 4.77487Z" fill="#7A5FFF"/>
<path d="M48.3699 33.623C49.1374 29.1195 49.9227 24.634 50.6901 20.1304C54.5453 19.6602 58.347 19.1899 62.2735 18.7016C61.863 20.9805 61.5061 23.0604 61.1313 25.1585C60.4352 28.9567 59.7391 32.7549 59.043 36.5531C58.8467 37.6383 58.4719 38 57.3832 38C38.7319 38 20.0807 38 1.44738 38C0.198012 38 -0.176799 37.4936 0.0730738 36.2456C0.644211 33.189 1.21535 30.1142 1.76864 27.0576C1.85788 26.5873 1.98282 26.2799 2.55396 26.1894C4.80281 25.8277 7.03381 25.3574 9.28266 24.9957C11.2816 24.6702 13.2806 24.3808 15.2796 24.1276C16.7432 23.9467 18.2067 23.8382 19.8487 23.6754C19.2419 27.0576 18.6707 30.2951 18.0818 33.6773C18.9206 33.6773 19.7595 33.6773 20.6162 33.6773C22.044 33.6773 23.4719 33.6592 24.8997 33.6954C25.4708 33.7135 25.6315 33.5145 25.7207 32.9357C26.2205 29.861 26.7916 26.8044 27.3092 23.7296C27.4341 22.97 27.7554 22.6806 28.5764 22.6083C31.0573 22.3912 33.5382 22.0295 36.0191 21.7582C38.0716 21.5412 40.1241 21.3603 42.2659 21.1614C41.5341 25.3574 40.8202 29.4631 40.1063 33.6411C42.837 33.623 45.5321 33.623 48.3699 33.623Z" fill="#7A5FFF"/>
<path d="M198.847 4.90145C176.965 4.90145 155.065 4.90145 133.184 4.90145C111.266 4.90145 89.3488 4.90145 67.4314 4.88336C66.4855 4.88336 66.1463 5.19083 65.9857 6.09517C65.2718 10.2913 64.4686 14.4693 63.7368 18.6473C63.0943 22.3008 62.5053 25.9724 61.9164 29.644C61.7022 30.9824 61.7379 31.0185 63.0586 31.0185C71.5721 31.0185 80.0678 31.0185 88.5635 31.0185C123.617 31.0185 158.688 31.0185 193.742 31.0366C194.688 31.0366 195.045 30.693 195.206 29.8248C196.741 21.9571 198.293 14.0895 199.846 6.22177C200.132 4.90145 200.132 4.90145 198.847 4.90145ZM75.7307 26.6416C72.8572 26.9852 70.2514 26.4969 67.8776 24.8148C65.6109 23.2051 64.4329 20.9985 64.3794 18.177C64.3258 13.6554 67.3778 9.62206 72.0362 8.7539C75.6593 8.06661 79.0683 8.7539 81.7634 11.5754C83.102 12.9862 83.8338 14.6863 84.0479 16.6758C84.6012 21.7944 80.5854 26.0447 75.7307 26.6416ZM87.7246 26.1713C89.2953 25.0499 89.0275 23.4945 89.0275 21.9933C89.0275 18.3217 89.0275 14.6501 89.0275 10.9424C86.8501 10.7073 84.8868 10.7977 83.4411 12.6787C83.3876 12.6244 83.3162 12.5883 83.2626 12.534C83.6374 11.3945 83.9944 10.237 84.3871 9.09754C84.4227 8.98902 84.7262 8.89859 84.9047 8.89859C89.5094 8.88051 94.1142 8.8805 98.7904 8.8805C99.0224 10.0019 99.2366 11.0871 99.4508 12.1723C97.8802 10.7434 96.0418 10.7615 94.0428 10.9243V11.7744C94.0428 15.3374 94.0785 18.8824 94.025 22.4455C94.0071 23.8743 94.0786 25.2127 95.6135 26.1894H87.7246V26.1713ZM120.065 26.2437C119.958 26.2256 119.833 26.2437 119.619 26.2437C118.584 23.4402 117.549 20.6368 116.514 17.8153C115.8 15.88 115.157 13.9086 114.354 12.0095C113.908 10.9605 113.212 10.0381 112.462 9.13372C112.765 10.2913 113.051 11.4488 113.354 12.6064C113.283 12.6787 113.229 12.7691 113.158 12.8415C111.07 9.76675 108.054 11.1956 105.323 10.8158V16.495C107.839 16.7663 109.767 16.8748 110.731 14.6682V19.7867C109.339 17.5983 107.215 18.7377 105.341 18.3941V24.3988C108.339 24.3446 111.57 25.2127 113.694 21.8124C113.765 21.9029 113.836 21.9752 113.908 22.0657C113.515 23.4402 113.122 24.7967 112.73 26.2075H99.1831C99.1831 26.1532 99.1474 26.0809 99.1652 26.0447C100.218 25.1042 100.522 23.9286 100.486 22.5178C100.397 19.0814 100.432 15.6449 100.468 12.2084C100.486 11.0871 100.147 10.1647 99.4151 9.35076C99.3437 9.26032 99.2902 9.1518 99.2188 9.06137C99.2009 9.04328 99.2366 9.00711 99.2545 8.91668H120.137C117.977 10.6168 119.351 12.335 119.94 13.9809C120.744 16.1875 121.707 18.3398 122.635 20.6006C123.153 19.3165 123.671 18.0504 124.188 16.8024C124.831 15.2832 125.455 13.7277 126.169 12.2446C126.705 11.1413 126.508 10.2551 125.723 9.40502C125.598 9.26033 125.455 9.11563 125.241 8.8805H130.221C129.792 9.45928 129.328 9.92953 129.025 10.5083C128.097 12.317 127.187 14.1437 126.366 16.0066C125.098 18.8462 123.796 21.6497 122.725 24.5616C122.189 26.0628 121.422 26.4788 120.065 26.2437ZM159.135 9.91144C158.492 10.6349 158.064 11.4307 158.082 12.4797C158.117 16.0609 158.1 19.6601 158.1 23.2413V26.0628C156.457 26.732 155.726 25.7553 154.958 24.7606C152.263 21.2879 149.55 17.8334 146.837 14.3788C146.784 14.3246 146.695 14.2703 146.498 14.1256V16.079C146.498 18.1228 146.534 20.1846 146.48 22.2284C146.445 23.5849 146.766 24.7063 147.855 25.5564C148.051 25.7192 148.212 25.9181 148.479 26.2075H135.432C135.736 25.9543 135.968 25.7915 136.164 25.5925C136.718 25.068 137.003 24.4712 136.7 23.6935C136.575 23.386 136.557 23.0604 136.45 22.7529C136.218 22.0476 135.95 21.3784 135.682 20.673H130.328C130.007 21.5411 129.65 22.4093 129.346 23.2775C128.918 24.5254 129.096 24.9957 130.167 25.7734C130.292 25.8638 130.381 25.9724 130.596 26.1713H124.92C127.365 24.3988 127.901 21.6677 128.989 19.2803C130.435 16.1332 131.809 12.95 133.184 9.76675C133.487 9.06137 133.88 8.7539 134.647 8.86242C135.076 8.93477 135.54 8.8805 136.004 8.8805C137.307 12.2808 138.592 15.663 139.877 19.0452C140.448 20.5645 140.983 22.1018 141.644 23.5849C142.001 24.4169 142.59 25.1404 143.089 25.9362C144.214 24.9776 144.749 23.9286 144.713 22.5178C144.66 19.4069 144.66 16.3141 144.713 13.2032C144.731 12.0276 144.321 11.1232 143.518 10.3455C143.089 9.92953 142.625 9.54971 142.179 9.1518C142.215 9.06137 142.25 8.98903 142.304 8.89859C144.16 8.89859 146.016 8.86242 147.855 8.93476C148.122 8.93476 148.408 9.33267 148.622 9.60397C150.871 12.4436 153.084 15.3013 155.315 18.1589C155.601 18.5207 155.868 18.9005 156.261 19.425C156.261 16.8024 156.35 14.3788 156.225 11.9552C156.154 10.6892 155.262 9.76675 154.084 8.98903H160.009C159.724 9.2965 159.42 9.60397 159.135 9.91144ZM174.377 25.6649C170.879 27.2384 167.363 27.2023 164.007 25.2308C161.848 23.9648 160.634 22.0476 160.206 19.4612C159.367 14.4512 163.311 9.71249 167.862 8.84433C170.218 8.39217 172.467 8.6092 174.734 9.24224C175.269 9.38693 175.858 9.38693 176.483 9.44119V13.5469C175.698 12.8596 175.037 12.1723 174.27 11.6116C172.235 10.1285 169.968 10.0923 167.827 11.1775C165.756 12.2265 164.989 14.2703 164.917 16.5311C164.864 17.8334 164.864 19.1899 165.114 20.474C165.524 22.5721 167.987 24.3807 170.111 24.4531C171.753 24.5073 173.36 24.4169 174.716 23.3498C175.305 22.8976 175.805 22.337 176.358 21.8305C176.893 23.6754 176.412 24.7606 174.377 25.6649ZM190.69 26.2075H176.983C176.983 26.1532 176.947 26.0628 176.965 26.0447C178.107 25.1404 178.321 23.9286 178.268 22.5359C178.196 19.5335 178.25 16.5131 178.25 13.4926C178.25 11.0147 178.25 11.0147 176.965 8.8805C181.231 8.8805 185.407 8.8805 189.566 8.8805C189.726 8.8805 189.976 8.93477 190.012 9.04329C190.494 10.2551 190.958 11.485 191.422 12.7149C191.333 12.7691 191.225 12.8415 191.136 12.8957C190.904 12.6606 190.636 12.4617 190.422 12.2084C189.691 11.286 188.745 10.8519 187.584 10.8519C186.121 10.8519 184.675 10.8519 183.14 10.8519V16.6758C185.104 16.3865 187.406 17.4717 188.709 14.8853V19.9495C187.299 17.5078 185.068 18.8643 183.14 18.3579V24.435C184.657 24.435 186.192 24.5074 187.727 24.4169C189.351 24.3265 190.512 23.2594 191.547 22.0837C191.636 22.1199 191.725 22.1561 191.814 22.2103C191.458 23.5126 191.083 24.851 190.69 26.2075Z" fill="white"/>
<path d="M135.022 18.4483H131.042C131.774 16.6397 132.488 14.8672 133.255 12.95C133.862 14.8672 134.433 16.6397 135.022 18.4483Z" fill="white"/>
<path d="M78.3187 21.722C77.3371 23.6211 75.8914 24.851 73.6604 24.7787C71.9648 24.7244 70.2335 23.1689 69.591 21.0709C69.2519 19.9495 69.0913 18.7739 68.8592 17.6163C68.8949 15.4279 69.5732 13.5469 70.8939 11.8829C72.1433 10.3093 74.874 10.0019 76.4625 11.2318C78.3366 12.6787 79.0505 14.6863 79.2111 16.9652C79.3182 18.6292 79.0862 20.2389 78.3187 21.722Z" fill="white"/>
</svg>
