<?xml version="1.0" encoding="utf-8"?>
<!-- Generator: Adobe Illustrator 19.0.0, SVG Export Plug-In . SVG Version: 6.00 Build 0)  -->
<svg version="1.1" id="Layer_1" xmlns="http://www.w3.org/2000/svg" xmlns:xlink="http://www.w3.org/1999/xlink" x="0px" y="0px"
	 viewBox="-155 238 200 38" style="enable-background:new -155 238 200 38;" xml:space="preserve">
<style type="text/css">
	.st0{fill:#58AEBC;}
	.st1{fill:#FFFFFF;}
</style>
<path class="st0" d="M-124.1,242.8c-2.8,0-5.5,0-8.3,0c-0.3,1.6-0.6,3.2-0.9,4.7c-0.5,2.8-1,5.6-1.5,8.4c-0.1,0.7-0.5,0.8-1.1,0.9
	c-5.6,1.2-11.2,2.5-16.7,4.7c0.1-0.9,0.3-1.7,0.4-2.5c1.2-6.4,2.4-12.8,3.5-19.3c0.3-1.5,0.6-1.8,2.1-1.8c18.4,0,36.8,0,55.2,0
	c1.7,0,1.9,0.3,1.6,2c-0.7,4-1.4,8-2.1,12c-0.1,0.5-0.2,0.6-0.7,0.7c-2.6,0.1-5.1,0.2-7.7,0.4c-0.9,0.1-1.9,0.2-2.9,0.2
	c0.6-3.6,1.2-7,1.9-10.5c-2.9,0-5.8,0-8.7,0c-0.5,2.7-1,5.4-1.5,8.2c-0.1,0.8-0.2,1.6-0.4,2.4c-0.1,0.2-0.3,0.5-0.5,0.6
	c-1.6,0.2-3.2,0.2-4.9,0.4c-2.5,0.3-4.9,0.6-7.4,0.9c-0.5,0.1-1.1,0.1-1.7,0.2C-125.6,251.1-124.9,247-124.1,242.8z"/>
<path class="st0" d="M-106.6,271.6c0.8-4.5,1.6-9,2.3-13.5c3.9-0.5,7.7-0.9,11.6-1.4c-0.4,2.3-0.8,4.4-1.1,6.5
	c-0.7,3.8-1.4,7.6-2.1,11.4c-0.2,1.1-0.6,1.4-1.7,1.4c-18.7,0-37.3,0-55.9,0c-1.2,0-1.6-0.5-1.4-1.8c0.6-3.1,1.1-6.1,1.7-9.2
	c0.1-0.5,0.2-0.8,0.8-0.9c2.2-0.4,4.5-0.8,6.7-1.2c2-0.3,4-0.6,6-0.9c1.5-0.2,2.9-0.3,4.6-0.5c-0.6,3.4-1.2,6.6-1.8,10
	c0.8,0,1.7,0,2.5,0c1.4,0,2.9,0,4.3,0c0.6,0,0.7-0.2,0.8-0.8c0.5-3.1,1.1-6.1,1.6-9.2c0.1-0.8,0.4-1,1.3-1.1c2.5-0.2,5-0.6,7.4-0.9
	c2.1-0.2,4.1-0.4,6.2-0.6c-0.7,4.2-1.4,8.3-2.2,12.5C-112.2,271.6-109.5,271.6-106.6,271.6z"/>
<path class="st1" d="M43.8,242.9c-21.9,0-43.8,0-65.7,0c-21.9,0-43.8,0-65.8,0c-0.9,0-1.3,0.3-1.4,1.2c-0.7,4.2-1.5,8.4-2.2,12.6
	c-0.6,3.7-1.2,7.3-1.8,11c-0.2,1.3-0.2,1.4,1.1,1.4c8.5,0,17,0,25.5,0c35.1,0,70.1,0,105.2,0c0.9,0,1.3-0.3,1.5-1.2
	c1.5-7.9,3.1-15.7,4.6-23.6C45.1,242.9,45.1,242.9,43.8,242.9z M-79.3,264.6c-2.9,0.3-5.5-0.1-7.9-1.8c-2.3-1.6-3.4-3.8-3.5-6.6
	c-0.1-4.5,3-8.6,7.7-9.4c3.6-0.7,7,0,9.7,2.8c1.3,1.4,2.1,3.1,2.3,5.1C-70.4,259.8-74.4,264-79.3,264.6z M-67.3,264.2
	c1.6-1.1,1.3-2.7,1.3-4.2c0-3.7,0-7.3,0-11.1c-2.2-0.2-4.1-0.1-5.6,1.7c-0.1-0.1-0.1-0.1-0.2-0.1c0.4-1.1,0.7-2.3,1.1-3.4
	c0-0.1,0.3-0.2,0.5-0.2c4.6,0,9.2,0,13.9,0c0.2,1.1,0.4,2.2,0.7,3.3c-1.6-1.4-3.4-1.4-5.4-1.2v0.9c0,3.6,0,7.1,0,10.7
	c0,1.4,0.1,2.8,1.6,3.7L-67.3,264.2L-67.3,264.2z M-34.9,264.2c-0.1,0-0.2,0-0.4,0c-1-2.8-2.1-5.6-3.1-8.4c-0.7-1.9-1.4-3.9-2.2-5.8
	c-0.4-1-1.1-2-1.9-2.9c0.3,1.2,0.6,2.3,0.9,3.5c-0.1,0.1-0.1,0.2-0.2,0.2c-2.1-3.1-5.1-1.6-7.8-2v5.7c2.5,0.3,4.4,0.4,5.4-1.8v5.1
	c-1.4-2.2-3.5-1-5.4-1.4v6c3-0.1,6.2,0.8,8.4-2.6c0.1,0.1,0.1,0.2,0.2,0.3c-0.4,1.4-0.8,2.7-1.2,4.1h-13.5c0-0.1,0-0.1,0-0.2
	c1.1-0.9,1.4-2.1,1.3-3.5c-0.1-3.4-0.1-6.9,0-10.3c0-1.1-0.3-2-1.1-2.9c-0.1-0.1-0.1-0.2-0.2-0.3c0,0,0-0.1,0-0.1h20.9
	c-2.2,1.7-0.8,3.4-0.2,5.1c0.8,2.2,1.8,4.4,2.7,6.6c0.5-1.3,1-2.6,1.6-3.8c0.6-1.5,1.3-3.1,2-4.6c0.5-1.1,0.3-2-0.4-2.8
	c-0.1-0.1-0.3-0.3-0.5-0.5h5c-0.4,0.6-0.9,1-1.2,1.6c-0.9,1.8-1.8,3.6-2.7,5.5c-1.3,2.8-2.6,5.6-3.6,8.6
	C-32.8,264.1-33.6,264.5-34.9,264.2z M4.1,247.9c-0.6,0.7-1.1,1.5-1.1,2.6c0,3.6,0,7.2,0,10.8v2.8c-1.6,0.7-2.4-0.3-3.1-1.3
	c-2.7-3.5-5.4-6.9-8.1-10.4c-0.1-0.1-0.1-0.1-0.3-0.3v2c0,2,0,4.1,0,6.1c0,1.4,0.3,2.5,1.4,3.3c0.2,0.2,0.4,0.4,0.6,0.7h-13
	c0.3-0.3,0.5-0.4,0.7-0.6c0.6-0.5,0.8-1.1,0.5-1.9c-0.1-0.3-0.1-0.6-0.3-0.9c-0.2-0.7-0.5-1.4-0.8-2.1h-5.4c-0.3,0.9-0.7,1.7-1,2.6
	c-0.4,1.2-0.3,1.7,0.8,2.5c0.1,0.1,0.2,0.2,0.4,0.4h-5.7c2.4-1.8,3-4.5,4.1-6.9c1.4-3.1,2.8-6.3,4.2-9.5c0.3-0.7,0.7-1,1.5-0.9
	c0.4,0.1,0.9,0,1.4,0c1.3,3.4,2.6,6.8,3.9,10.2c0.6,1.5,1.1,3.1,1.8,4.5c0.4,0.8,0.9,1.6,1.4,2.4c1.1-1,1.7-2,1.6-3.4
	c-0.1-3.1-0.1-6.2,0-9.3c0-1.2-0.4-2.1-1.2-2.9c-0.4-0.4-0.9-0.8-1.3-1.2c0-0.1,0.1-0.2,0.1-0.3c1.9,0,3.7,0,5.6,0
	c0.3,0,0.6,0.4,0.8,0.7c2.2,2.8,4.5,5.7,6.7,8.6c0.3,0.4,0.6,0.7,0.9,1.3c0-2.6,0.1-5,0-7.5c-0.1-1.3-1-2.2-2.1-3H5
	C4.7,247.3,4.4,247.6,4.1,247.9z M19.4,263.7c-3.5,1.6-7,1.5-10.4-0.4c-2.2-1.3-3.4-3.2-3.8-5.8c-0.8-5,3.1-9.7,7.7-10.6
	c2.4-0.5,4.6-0.2,6.9,0.4c0.5,0.1,1.1,0.1,1.7,0.2v4.1c-0.8-0.7-1.4-1.4-2.2-1.9c-2-1.5-4.3-1.5-6.4-0.4c-2.1,1-2.8,3.1-2.9,5.4
	c-0.1,1.3-0.1,2.7,0.2,3.9c0.4,2.1,2.9,3.9,5,4c1.6,0.1,3.2,0,4.6-1.1c0.6-0.5,1.1-1,1.6-1.5C21.9,261.7,21.4,262.8,19.4,263.7z
	 M35.7,264.2H22c0-0.1,0-0.1,0-0.2c1.1-0.9,1.4-2.1,1.3-3.5c-0.1-3,0-6,0-9c0-2.5,0-2.5-1.3-4.6c4.3,0,8.4,0,12.6,0
	c0.2,0,0.4,0.1,0.4,0.2c0.5,1.2,0.9,2.4,1.4,3.7c-0.1,0.1-0.2,0.1-0.3,0.2c-0.2-0.2-0.5-0.4-0.7-0.7c-0.7-0.9-1.7-1.4-2.8-1.4
	c-1.5,0-2.9,0-4.4,0v5.8c2-0.3,4.3,0.8,5.6-1.8v5.1c-1.4-2.4-3.6-1.1-5.6-1.6v6.1c1.5,0,3.1,0.1,4.6,0c1.6-0.1,2.8-1.2,3.8-2.3
	c0.1,0,0.2,0.1,0.3,0.1C36.5,261.5,36.1,262.9,35.7,264.2z"/>
<path class="st1" d="M-20,256.4h-4c0.7-1.8,1.4-3.6,2.2-5.5C-21.1,252.9-20.6,254.6-20,256.4z"/>
<path class="st1" d="M-76.7,259.7c-1,1.9-2.4,3.1-4.7,3.1c-1.7-0.1-3.4-1.6-4.1-3.7c-0.3-1.1-0.5-2.3-0.7-3.5c0-2.2,0.7-4.1,2-5.7
	c1.2-1.6,4-1.9,5.6-0.7c1.9,1.4,2.6,3.5,2.7,5.7C-75.7,256.6-75.9,258.2-76.7,259.7z"/>
</svg>
