<?xml version="1.0" encoding="utf-8"?>
<!-- Generator: Adobe Illustrator 19.0.0, SVG Export Plug-In . SVG Version: 6.00 Build 0)  -->
<svg version="1.1" id="Layer_1" xmlns="http://www.w3.org/2000/svg" xmlns:xlink="http://www.w3.org/1999/xlink" x="0px" y="0px"
	 viewBox="-142 235 227 43" style="enable-background:new -142 235 227 43;" xml:space="preserve">
<style type="text/css">
	.st0{fill:#58AEBC;}
	.st1{fill:#3C3B41;}
</style>
<path class="st0" d="M-107.1,240.4c-3.2,0-6.2,0-9.4,0c-0.3,1.8-0.7,3.6-1,5.4c-0.6,3.2-1.1,6.3-1.7,9.5c-0.1,0.8-0.6,0.9-1.3,1.1
	c-6.3,1.4-12.7,2.8-18.9,5.3c0.2-1,0.3-1.9,0.5-2.8c1.3-7.3,2.7-14.5,4-21.8c0.3-1.7,0.7-2,2.4-2c20.8,0,41.6,0,62.4,0
	c1.9,0,2.2,0.4,1.9,2.2c-0.8,4.5-1.6,9.1-2.4,13.6c-0.1,0.6-0.3,0.7-0.8,0.7c-2.9,0.1-5.8,0.2-8.7,0.4c-1.1,0.1-2.1,0.2-3.3,0.3
	c0.7-4,1.4-7.9,2.1-11.9c-3.3,0-6.5,0-9.9,0c-0.5,3-1.1,6.1-1.7,9.2c-0.2,0.9-0.2,1.8-0.4,2.7c-0.1,0.2-0.4,0.6-0.6,0.6
	c-1.8,0.2-3.7,0.3-5.5,0.5c-2.8,0.3-5.6,0.7-8.3,1c-0.6,0.1-1.2,0.1-2,0.2C-108.7,249.9-107.9,245.2-107.1,240.4z"/>
<path class="st0" d="M-87.3,273c0.9-5.1,1.8-10.2,2.6-15.3c4.4-0.5,8.7-1.1,13.1-1.6c-0.5,2.6-0.9,4.9-1.3,7.3
	c-0.8,4.3-1.6,8.6-2.4,12.9c-0.2,1.2-0.6,1.6-1.9,1.6c-21.1,0-42.2,0-63.3,0c-1.4,0-1.8-0.6-1.6-2c0.6-3.5,1.3-6.9,1.9-10.4
	c0.1-0.5,0.2-0.9,0.9-1c2.5-0.4,5.1-0.9,7.6-1.4c2.3-0.4,4.5-0.7,6.8-1c1.7-0.2,3.3-0.3,5.2-0.5c-0.7,3.8-1.3,7.5-2,11.3
	c0.9,0,1.9,0,2.9,0c1.6,0,3.2,0,4.8,0c0.6,0,0.8-0.2,0.9-0.9c0.6-3.5,1.2-6.9,1.8-10.4c0.1-0.9,0.5-1.2,1.4-1.3
	c2.8-0.2,5.6-0.7,8.4-1c2.3-0.2,4.6-0.5,7.1-0.7c-0.8,4.7-1.6,9.4-2.4,14.1C-93.5,273-90.5,273-87.3,273z"/>
<path class="st1" d="M83,240.5c-24.8,0-49.5,0-74.3,0c-24.8,0-49.6,0-74.4,0c-1.1,0-1.5,0.3-1.6,1.4c-0.8,4.7-1.7,9.5-2.5,14.2
	c-0.7,4.1-1.4,8.3-2.1,12.4c-0.2,1.5-0.2,1.6,1.3,1.6c9.6,0,19.2,0,28.9,0c39.7,0,79.4,0,119,0c1.1,0,1.5-0.4,1.7-1.4
	c1.7-8.9,3.5-17.8,5.3-26.7C84.5,240.5,84.5,240.5,83,240.5z M-56.3,265.1c-3.3,0.4-6.2-0.2-8.9-2.1c-2.6-1.8-3.9-4.3-4-7.5
	c-0.1-5.1,3.4-9.7,8.7-10.7c4.1-0.8,8,0,11,3.2c1.5,1.6,2.3,3.5,2.6,5.8C-46.3,259.7-50.8,264.5-56.3,265.1z M-42.7,264.6
	c1.8-1.3,1.5-3,1.5-4.7c0-4.2,0-8.3,0-12.5c-2.5-0.3-4.7-0.2-6.3,2c-0.1-0.1-0.1-0.1-0.2-0.2c0.4-1.3,0.8-2.6,1.3-3.9
	c0-0.1,0.4-0.2,0.6-0.2c5.2,0,10.4,0,15.7,0c0.3,1.3,0.5,2.5,0.7,3.7c-1.8-1.6-3.9-1.6-6.1-1.4v1c0,4,0,8,0,12.1
	c0,1.6,0.1,3.1,1.8,4.2L-42.7,264.6L-42.7,264.6z M-6.1,264.7c-0.1,0-0.3,0-0.5,0c-1.2-3.2-2.3-6.3-3.5-9.5
	c-0.8-2.2-1.5-4.4-2.4-6.6c-0.5-1.2-1.3-2.2-2.1-3.3c0.3,1.3,0.7,2.6,1,3.9c-0.1,0.1-0.1,0.2-0.2,0.3c-2.4-3.5-5.8-1.9-8.9-2.3v6.4
	c2.8,0.3,5,0.4,6.1-2.1v5.8c-1.6-2.5-4-1.2-6.1-1.6v6.8c3.4-0.1,7,0.9,9.5-2.9c0.1,0.1,0.2,0.2,0.2,0.3c-0.4,1.6-0.9,3.1-1.3,4.7
	h-15.3c0-0.1,0-0.1,0-0.2c1.2-1.1,1.5-2.4,1.5-4c-0.1-3.9-0.1-7.8,0-11.7c0-1.3-0.4-2.3-1.2-3.2c-0.1-0.1-0.1-0.2-0.2-0.3
	c0,0,0-0.1,0-0.2h23.6c-2.4,1.9-0.9,3.9-0.2,5.7c0.9,2.5,2,4.9,3.1,7.5c0.6-1.5,1.2-2.9,1.8-4.3c0.7-1.7,1.4-3.5,2.2-5.2
	c0.6-1.2,0.4-2.3-0.5-3.2c-0.1-0.2-0.3-0.3-0.5-0.6h5.6c-0.5,0.7-1,1.2-1.4,1.8c-1.1,2-2.1,4.1-3,6.2c-1.4,3.2-2.9,6.4-4.1,9.7
	C-3.7,264.5-4.6,265-6.1,264.7z M38.1,246.2c-0.7,0.8-1.2,1.7-1.2,2.9c0,4.1,0,8.1,0,12.2v3.2c-1.9,0.8-2.7-0.3-3.6-1.5
	c-3.1-3.9-6.1-7.8-9.2-11.7c-0.1-0.1-0.2-0.1-0.4-0.3v2.2c0,2.3,0,4.6,0,7c0,1.5,0.3,2.8,1.6,3.8c0.2,0.2,0.4,0.4,0.7,0.7H11.3
	c0.3-0.3,0.6-0.5,0.8-0.7c0.6-0.6,0.9-1.3,0.6-2.1c-0.1-0.3-0.2-0.7-0.3-1.1c-0.3-0.8-0.6-1.6-0.9-2.4H5.5c-0.4,1-0.8,2-1.1,2.9
	c-0.5,1.4-0.3,1.9,0.9,2.8c0.1,0.1,0.2,0.2,0.5,0.5h-6.4c2.8-2,3.4-5.1,4.6-7.8c1.6-3.6,3.2-7.2,4.7-10.8c0.3-0.8,0.8-1.1,1.7-1
	c0.5,0.1,1,0,1.5,0c1.5,3.8,2.9,7.7,4.4,11.5c0.6,1.7,1.3,3.5,2,5.1c0.4,0.9,1.1,1.8,1.6,2.7c1.3-1.1,1.9-2.3,1.8-3.9
	c-0.1-3.5-0.1-7,0-10.5c0-1.3-0.4-2.4-1.4-3.2c-0.5-0.5-1-0.9-1.5-1.4c0-0.1,0.1-0.2,0.1-0.3c2.1,0,4.2,0,6.3,0
	c0.3,0,0.6,0.5,0.9,0.8c2.5,3.2,5,6.4,7.6,9.7c0.3,0.4,0.6,0.8,1.1,1.4c0-3,0.1-5.7,0-8.5c-0.1-1.4-1.1-2.5-2.4-3.4h6.7
	C38.7,245.5,38.4,245.9,38.1,246.2z M55.3,264c-4,1.8-7.9,1.7-11.7-0.5c-2.4-1.4-3.8-3.6-4.3-6.5c-0.9-5.7,3.5-11,8.7-12
	c2.7-0.5,5.2-0.3,7.8,0.5c0.6,0.2,1.3,0.2,2,0.2v4.6c-0.9-0.8-1.6-1.6-2.5-2.2c-2.3-1.7-4.9-1.7-7.3-0.5c-2.3,1.2-3.2,3.5-3.3,6.1
	c-0.1,1.5-0.1,3,0.2,4.5c0.5,2.4,3.3,4.4,5.7,4.5c1.9,0.1,3.7,0,5.2-1.2c0.7-0.5,1.2-1.1,1.9-1.7C58.2,261.8,57.6,263,55.3,264z
	 M73.8,264.7H58.3c0-0.1,0-0.2,0-0.2c1.3-1,1.5-2.4,1.5-4c-0.1-3.4,0-6.8,0-10.2c0-2.8,0-2.8-1.5-5.2c4.8,0,9.6,0,14.3,0
	c0.2,0,0.5,0.1,0.5,0.2c0.5,1.4,1.1,2.8,1.6,4.2c-0.1,0.1-0.2,0.1-0.3,0.2c-0.3-0.3-0.6-0.5-0.8-0.8c-0.8-1-1.9-1.5-3.2-1.5
	c-1.7,0-3.3,0-5,0v6.6c2.2-0.3,4.8,0.9,6.3-2v5.7c-1.6-2.8-4.1-1.2-6.3-1.8v6.9c1.7,0,3.5,0.1,5.2,0c1.8-0.1,3.1-1.3,4.3-2.6
	c0.1,0,0.2,0.1,0.3,0.1C74.6,261.6,74.2,263.1,73.8,264.7z"/>
<path class="st1" d="M10.8,255.9H6.3c0.8-2,1.6-4.1,2.5-6.2C9.5,251.8,10.1,253.8,10.8,255.9z"/>
<path class="st1" d="M-53.4,259.6c-1.1,2.1-2.7,3.5-5.3,3.5c-1.9-0.1-3.9-1.8-4.6-4.2c-0.4-1.3-0.6-2.6-0.8-3.9
	c0-2.5,0.8-4.6,2.3-6.5c1.4-1.8,4.5-2.1,6.3-0.7c2.1,1.6,2.9,3.9,3.1,6.5C-52.2,256.1-52.5,257.9-53.4,259.6z"/>
</svg>
