<svg width="227" height="43" viewBox="0 0 227 43" fill="none" xmlns="http://www.w3.org/2000/svg">
<path d="M34.9418 5.4032C31.7912 5.4032 28.7415 5.4032 25.5908 5.4032C25.2677 7.18378 24.9244 8.98483 24.6012 10.7654C24.0357 13.9377 23.4702 17.11 22.9451 20.2823C22.8037 21.0805 22.3594 21.2033 21.6525 21.3466C15.3108 22.6973 8.98934 24.13 2.76882 26.6883C2.93039 25.6445 3.07176 24.744 3.23334 23.8435C4.5663 16.5779 5.89928 9.31229 7.23225 2.04671C7.5352 0.388923 7.93912 6.10352e-05 9.63562 6.10352e-05C30.438 6.10352e-05 51.2404 6.10352e-05 72.0428 6.10352e-05C73.921 6.10352e-05 74.224 0.368456 73.9008 2.2309C73.093 6.77445 72.2649 11.2975 71.4773 15.8411C71.3763 16.4141 71.1945 16.5574 70.6492 16.5779C67.7409 16.6802 64.8326 16.8235 61.9243 16.9872C60.8741 17.0486 59.8037 17.1714 58.6525 17.2533C59.3796 13.2214 60.0662 9.35322 60.7731 5.4032C57.4811 5.4032 54.2496 5.4032 50.9172 5.4032C50.3719 8.4527 49.8064 11.5431 49.2611 14.6336C49.0996 15.5341 49.0188 16.4551 48.8168 17.3351C48.7562 17.5807 48.4533 17.9491 48.2311 17.9696C46.4134 18.1538 44.5755 18.2357 42.7377 18.4199C39.9505 18.7064 37.1836 19.0748 34.4167 19.4022C33.831 19.4636 33.2251 19.5455 32.4576 19.6274C33.2655 14.8792 34.0936 10.1719 34.9418 5.4032Z" fill="#7A5FFF"/>
<path d="M54.7344 38.0472C55.6028 32.951 56.4915 27.8754 57.3599 22.7792C61.7223 22.2471 66.0242 21.715 70.4674 21.1624C70.0029 23.7411 69.599 26.0948 69.1748 28.4689C68.3872 32.7668 67.5995 37.0648 66.8119 41.3627C66.5897 42.5907 66.1656 43.0001 64.9336 43.0001C43.8283 43.0001 22.7229 43.0001 1.63782 43.0001C0.224067 43.0001 -0.200062 42.427 0.0826888 41.0148C0.728976 37.556 1.37526 34.0767 2.00135 30.6179C2.10234 30.0857 2.24372 29.7378 2.89 29.6355C5.43476 29.2261 7.95931 28.694 10.5041 28.2847C12.7661 27.9163 15.0281 27.5888 17.2901 27.3023C18.9462 27.0976 20.6023 26.9748 22.4604 26.7906C21.7737 30.6179 21.1274 34.2813 20.4609 38.1086C21.4102 38.1086 22.3594 38.1086 23.3288 38.1086C24.9446 38.1086 26.5603 38.0881 28.176 38.129C28.8223 38.1495 29.0041 37.9244 29.105 37.2695C29.6705 33.7902 30.3168 30.3313 30.9025 26.852C31.0439 25.9924 31.4074 25.665 32.3365 25.5831C35.1438 25.3375 37.9511 24.9282 40.7584 24.6212C43.081 24.3756 45.4036 24.1709 47.8272 23.9458C46.9991 28.694 46.1913 33.3399 45.3834 38.0676C48.4735 38.0472 51.5231 38.0472 54.7344 38.0472Z" fill="#7A5FFF"/>
<path d="M225.011 5.54628C200.25 5.54628 175.469 5.54628 150.708 5.54628C125.907 5.54628 101.106 5.54628 76.3043 5.52582C75.2339 5.52582 74.8502 5.87375 74.6684 6.89707C73.8605 11.6453 72.9517 16.373 72.1236 21.1008C71.3965 25.235 70.7301 29.3897 70.0636 33.5444C69.8212 35.0589 69.8616 35.0998 71.3562 35.0998C80.9899 35.0998 90.6034 35.0998 100.217 35.0998C139.883 35.0998 179.569 35.0998 219.235 35.1203C220.305 35.1203 220.709 34.7314 220.891 33.749C222.628 24.8461 224.385 15.9432 226.142 7.04033C226.465 5.54628 226.465 5.54628 225.011 5.54628ZM85.6957 30.1469C82.444 30.5358 79.4953 29.9832 76.8092 28.0798C74.2443 26.2583 72.9113 23.7614 72.8507 20.5687C72.7901 15.452 76.2437 10.888 81.515 9.90564C85.6149 9.12791 89.4724 9.90564 92.5221 13.0984C94.0368 14.6948 94.8649 16.6186 95.1072 18.8699C95.7333 24.6619 91.1891 29.4716 85.6957 30.1469ZM99.2677 29.6148C101.045 28.3459 100.742 26.5858 100.742 24.8871C100.742 20.7324 100.742 16.5777 100.742 12.3821C98.2781 12.116 96.0565 12.2183 94.4205 14.3469C94.3599 14.2855 94.2792 14.2445 94.2186 14.1831C94.6427 12.8937 95.0466 11.5839 95.491 10.2945C95.5313 10.1717 95.8747 10.0694 96.0767 10.0694C101.287 10.0489 106.498 10.0489 111.79 10.0489C112.052 11.3178 112.294 12.5458 112.537 13.7738C110.759 12.1569 108.679 12.1774 106.417 12.3616V13.3235C106.417 17.3554 106.458 21.3668 106.397 25.3987C106.377 27.0156 106.458 28.5301 108.195 29.6353H99.2677V29.6148ZM135.864 29.6967C135.743 29.6762 135.601 29.6967 135.359 29.6967C134.187 26.5244 133.016 23.3521 131.845 20.1593C131.037 17.9694 130.31 15.7386 129.401 13.5896C128.896 12.4025 128.108 11.3588 127.26 10.3354C127.603 11.6453 127.926 12.9551 128.27 14.265C128.189 14.3469 128.128 14.4492 128.048 14.5311C125.685 11.0518 122.271 12.6686 119.181 12.2388V18.6653C122.029 18.9723 124.21 19.0951 125.301 16.5982V22.3902C123.726 19.9137 121.322 21.2031 119.202 20.8143V27.6091C122.595 27.5477 126.25 28.5301 128.654 24.6824C128.734 24.7847 128.815 24.8666 128.896 24.9689C128.452 26.5244 128.007 28.0594 127.563 29.6558H112.234C112.234 29.5944 112.193 29.5125 112.214 29.4716C113.405 28.4073 113.749 27.077 113.708 25.4806C113.607 21.592 113.648 17.7034 113.688 13.8147C113.708 12.5458 113.324 11.502 112.496 10.581C112.416 10.4787 112.355 10.3559 112.274 10.2536C112.254 10.2331 112.294 10.1922 112.315 10.0898H135.944C133.501 12.0137 135.056 13.958 135.722 15.8204C136.631 18.3173 137.722 20.7529 138.772 23.3112C139.358 21.858 139.943 20.4254 140.529 19.0132C141.256 17.294 141.963 15.5339 142.771 13.8557C143.377 12.6072 143.155 11.6044 142.266 10.6424C142.125 10.4787 141.963 10.315 141.721 10.0489H147.355C146.871 10.7038 146.346 11.236 146.002 11.8909C144.952 13.9375 143.922 16.0046 142.993 18.1127C141.559 21.3259 140.085 24.4982 138.873 27.7933C138.267 29.492 137.399 29.9628 135.864 29.6967ZM180.074 11.2155C179.347 12.0341 178.862 12.9347 178.882 14.1217C178.923 18.1741 178.902 22.2469 178.902 26.2993V29.492C177.044 30.2493 176.216 29.1441 175.348 28.0184C172.298 24.0889 169.228 20.1798 166.158 16.2707C166.098 16.2093 165.997 16.1479 165.775 15.9842V18.1945C165.775 20.5073 165.815 22.8404 165.755 25.1531C165.714 26.6881 166.078 27.957 167.31 28.919C167.532 29.1032 167.714 29.3283 168.017 29.6558H153.253C153.596 29.3692 153.859 29.185 154.081 28.9599C154.707 28.3664 155.03 27.691 154.687 26.8109C154.545 26.463 154.525 26.0946 154.404 25.7467C154.142 24.9485 153.839 24.1912 153.536 23.393H147.477C147.113 24.3754 146.709 25.3578 146.366 26.3402C145.881 27.7524 146.083 28.2845 147.295 29.1646C147.436 29.2669 147.537 29.3897 147.78 29.6148H141.357C144.124 27.6091 144.73 24.5187 145.962 21.8171C147.598 18.2559 149.153 14.6539 150.708 11.0518C151.051 10.2536 151.496 9.90564 152.364 10.0284C152.849 10.1103 153.374 10.0489 153.899 10.0489C155.373 13.8966 156.828 17.7238 158.282 21.551C158.928 23.2702 159.534 25.0099 160.281 26.6881C160.685 27.6296 161.352 28.4482 161.917 29.3488C163.19 28.264 163.795 27.077 163.755 25.4806C163.694 21.9604 163.694 18.4606 163.755 14.9404C163.775 13.6101 163.311 12.5867 162.402 11.7067C161.917 11.236 161.392 10.8062 160.887 10.3559C160.928 10.2536 160.968 10.1717 161.029 10.0694C163.129 10.0694 165.229 10.0284 167.31 10.1103C167.613 10.1103 167.936 10.5606 168.178 10.8676C170.723 14.0808 173.227 17.3145 175.752 20.5482C176.075 20.9575 176.378 21.3873 176.822 21.9808C176.822 19.0132 176.923 16.2707 176.782 13.5282C176.701 12.0955 175.691 11.0518 174.358 10.1717H181.063C180.74 10.5196 180.397 10.8676 180.074 11.2155ZM197.322 29.0418C193.363 30.8223 189.384 30.7814 185.587 28.5506C183.144 27.1179 181.77 24.9485 181.286 22.0218C180.336 16.3526 184.8 10.9904 189.95 10.008C192.616 9.49631 195.161 9.7419 197.726 10.4582C198.331 10.622 198.998 10.622 199.705 10.6834V15.3292C198.816 14.5515 198.069 13.7738 197.2 13.1393C194.898 11.4611 192.333 11.4202 189.909 12.6481C187.567 13.8352 186.698 16.1479 186.617 18.7062C186.557 20.1798 186.557 21.7148 186.84 23.1679C187.304 25.542 190.091 27.5886 192.495 27.6705C194.353 27.7319 196.17 27.6296 197.705 26.4221C198.372 25.9104 198.937 25.2759 199.563 24.7029C200.169 26.7905 199.624 28.0184 197.322 29.0418ZM215.781 29.6558H200.27C200.27 29.5944 200.23 29.492 200.25 29.4716C201.543 28.4482 201.785 27.077 201.724 25.5011C201.644 22.1036 201.704 18.6857 201.704 15.2678C201.704 12.4639 201.704 12.4639 200.25 10.0489C205.077 10.0489 209.803 10.0489 214.509 10.0489C214.691 10.0489 214.973 10.1103 215.014 10.2331C215.559 11.6044 216.084 12.9961 216.609 14.3878C216.508 14.4492 216.387 14.5311 216.286 14.5925C216.024 14.3264 215.721 14.1013 215.478 13.8147C214.65 12.7709 213.58 12.2797 212.267 12.2797C210.611 12.2797 208.975 12.2797 207.238 12.2797V18.8699C209.46 18.5425 212.065 19.7705 213.539 16.8438V22.5744C211.944 19.8114 209.419 21.3464 207.238 20.7733V27.65C208.955 27.65 210.692 27.7319 212.429 27.6296C214.266 27.5272 215.579 26.3197 216.751 24.9894C216.852 25.0303 216.953 25.0713 217.054 25.1327C216.65 26.6063 216.226 28.1208 215.781 29.6558Z" fill="#3C3B41"/>
<path d="M152.788 20.8757H148.285C149.113 18.829 149.92 16.8233 150.789 14.6539C151.476 16.8233 152.122 18.829 152.788 20.8757Z" fill="#3C3B41"/>
<path d="M88.6242 24.5801C87.5133 26.7291 85.8774 28.1208 83.3529 28.0389C81.4342 27.9775 79.4751 26.2174 78.7481 23.8433C78.3643 22.5744 78.1826 21.244 77.92 19.9342C77.9604 17.4578 78.7279 15.3292 80.2224 13.4463C81.6362 11.6658 84.7262 11.3178 86.5237 12.7095C88.6443 14.3469 89.4522 16.6186 89.634 19.1974C89.7552 21.0803 89.4926 22.9018 88.6242 24.5801Z" fill="#3C3B41"/>
</svg>
