<?xml version="1.0" encoding="utf-8"?>
<!-- Generator: Adobe Illustrator 19.0.0, SVG Export Plug-In . SVG Version: 6.00 Build 0)  -->
<svg version="1.1" id="Layer_1" xmlns="http://www.w3.org/2000/svg" xmlns:xlink="http://www.w3.org/1999/xlink" x="0px" y="0px"
	 viewBox="-239 240 33 33" style="enable-background:new -239 240 33 33;" xml:space="preserve">
<style type="text/css">
	.st0{fill:#DEFCFF;}
	.st1{fill:none;stroke:#58AEBC;stroke-width:2;stroke-linecap:round;stroke-linejoin:round;}
</style>
<circle class="st0" cx="-222.5" cy="256.5" r="16.5"/>
<path class="st1" d="M-213.4,262.3l-6-5.3 M-224.6,257l-6,5.3 M-231,252.6l7.3,5c0.6,0.4,0.9,0.6,1.2,0.7c0.3,0.1,0.6,0.1,0.9,0
	c0.3-0.1,0.6-0.3,1.2-0.7l7.3-5 M-226.7,264h9.4c1.5,0,2.3,0,2.8-0.3c0.5-0.3,0.9-0.7,1.2-1.1c0.3-0.6,0.3-1.3,0.3-2.8v-5.6
	c0-1.5,0-2.2-0.3-2.8c-0.3-0.5-0.7-0.9-1.2-1.1c-0.6-0.3-1.3-0.3-2.8-0.3h-9.4c-1.5,0-2.3,0-2.8,0.3c-0.5,0.3-0.9,0.7-1.2,1.1
	c-0.3,0.6-0.3,1.3-0.3,2.8v5.6c0,1.5,0,2.2,0.3,2.8c0.3,0.5,0.7,0.9,1.2,1.1C-228.9,264-228.2,264-226.7,264z"/>
</svg>
