<svg width="33" height="33" viewBox="0 0 33 33" fill="none" xmlns="http://www.w3.org/2000/svg">
<circle cx="16.5" cy="16.5" r="16.5" fill="#F7F5FF"/>
<path d="M25.55 22.25L19.5714 17M14.4286 17L8.45003 22.25M8 12.625L15.3484 17.626C15.9435 18.031 16.241 18.2335 16.5646 18.3119C16.8505 18.3812 17.1495 18.3812 17.4354 18.3119C17.759 18.2335 18.0565 18.031 18.6516 17.626L26 12.625M12.32 24H21.68C23.1921 24 23.9482 24 24.5258 23.7139C25.0338 23.4622 25.4469 23.0607 25.7057 22.5667C26 22.0052 26 21.2701 26 19.8V14.2C26 12.7299 26 11.9948 25.7057 11.4333C25.4469 10.9393 25.0338 10.5378 24.5258 10.2861C23.9482 10 23.1921 10 21.68 10H12.32C10.8079 10 10.0518 10 9.47423 10.2861C8.96619 10.5378 8.55314 10.9393 8.29428 11.4333C8 11.9948 8 12.7299 8 14.2V19.8C8 21.2701 8 22.0052 8.29428 22.5667C8.55314 23.0607 8.96619 23.4622 9.47423 23.7139C10.0518 24 10.8079 24 12.32 24Z" stroke="#7A5FFF" stroke-width="2" stroke-linecap="round" stroke-linejoin="round"/>
</svg>
