<?xml version="1.0" encoding="utf-8"?>
<!-- Generator: Adobe Illustrator 19.0.0, SVG Export Plug-In . SVG Version: 6.00 Build 0)  -->
<svg version="1.1" id="Layer_1" xmlns="http://www.w3.org/2000/svg" xmlns:xlink="http://www.w3.org/1999/xlink" x="0px" y="0px"
	 viewBox="-239 240 33 33" style="enable-background:new -239 240 33 33;" xml:space="preserve">
<style type="text/css">
	.st0{fill:#DEFCFF;}
	.st1{fill:none;stroke:#58AEBC;stroke-width:2;stroke-linecap:round;stroke-linejoin:round;}
</style>
<circle class="st0" cx="-222.5" cy="256.5" r="16.5"/>
<path class="st1" d="M-226,253.8c0.6,1.3,1.5,2.6,2.6,3.7s2.3,2,3.7,2.6c0.1,0.1,0.2,0.1,0.2,0.1c0.3,0.1,0.6,0,0.8-0.1
	c0.1,0,0.1-0.1,0.2-0.2c0.3-0.3,0.5-0.5,0.6-0.6c0.6-0.4,1.4-0.4,2,0c0.2,0.1,0.3,0.3,0.6,0.6l0.2,0.2c0.5,0.5,0.7,0.7,0.9,1
	c0.3,0.5,0.3,1.1,0,1.6c-0.1,0.3-0.4,0.5-0.9,1l-0.1,0.1c-0.5,0.5-0.7,0.7-1.1,0.9c-0.4,0.2-0.9,0.4-1.4,0.4c-0.4,0-0.6-0.1-1.2-0.2
	c-2.8-0.8-5.4-2.3-7.6-4.5c-2.2-2.2-3.7-4.8-4.5-7.6c-0.1-0.5-0.2-0.8-0.2-1.2c0-0.4,0.1-1,0.4-1.4c0.2-0.3,0.4-0.6,0.9-1.1l0.1-0.1
	c0.5-0.5,0.7-0.7,1-0.9c0.5-0.3,1.1-0.3,1.6,0c0.3,0.1,0.5,0.4,1,0.9l0.2,0.2c0.3,0.3,0.5,0.5,0.6,0.6c0.4,0.6,0.4,1.4,0,2
	c-0.1,0.2-0.3,0.3-0.6,0.6c-0.1,0.1-0.2,0.2-0.2,0.2c-0.2,0.2-0.2,0.5-0.1,0.8C-226.1,253.6-226.1,253.6-226,253.8z"/>
</svg>
