<svg width="33" height="33" viewBox="0 0 33 33" fill="none" xmlns="http://www.w3.org/2000/svg">
<circle cx="16.5" cy="16.5" r="16.5" fill="#F7F5FF"/>
<path d="M12.9803 13.7552C13.6162 15.0797 14.4831 16.3211 15.581 17.419C16.6789 18.5169 17.9203 19.3838 19.2448 20.0197C19.3588 20.0744 19.4157 20.1018 19.4878 20.1228C19.744 20.1975 20.0585 20.1438 20.2755 19.9885C20.3365 19.9448 20.3888 19.8926 20.4932 19.7881C20.8126 19.4687 20.9724 19.309 21.133 19.2045C21.7387 18.8107 22.5195 18.8107 23.1252 19.2045C23.2858 19.309 23.4455 19.4687 23.765 19.7881L23.943 19.9662C24.4286 20.4518 24.6714 20.6945 24.8033 20.9553C25.0656 21.4739 25.0656 22.0863 24.8033 22.6049C24.6714 22.8657 24.4286 23.1084 23.943 23.594L23.799 23.7381C23.3151 24.222 23.0731 24.4639 22.7441 24.6487C22.3791 24.8538 21.8121 25.0012 21.3935 25C21.0162 24.9989 20.7583 24.9257 20.2425 24.7793C17.4709 23.9926 14.8555 22.5083 12.6736 20.3264C10.4917 18.1445 9.00738 15.5291 8.22071 12.7575C8.07432 12.2417 8.00113 11.9838 8.00001 11.6065C7.99876 11.1879 8.1462 10.6209 8.35126 10.2559C8.53605 9.92691 8.77801 9.68494 9.26193 9.20102L9.40597 9.05699C9.89155 8.57141 10.1343 8.32861 10.3951 8.19672C10.9137 7.93443 11.5261 7.93443 12.0447 8.19672C12.3055 8.32861 12.5482 8.5714 13.0338 9.05699L13.2119 9.23504C13.5313 9.55448 13.691 9.7142 13.7955 9.87481C14.1893 10.4805 14.1893 11.2613 13.7955 11.867C13.691 12.0276 13.5313 12.1874 13.2119 12.5068C13.1074 12.6112 13.0552 12.6635 13.0115 12.7245C12.8562 12.9415 12.8025 13.256 12.8772 13.5122C12.8982 13.5843 12.9256 13.6412 12.9803 13.7552Z" stroke="#7A5FFF" stroke-width="2" stroke-linecap="round" stroke-linejoin="round"/>
</svg>
