<?xml version="1.0" encoding="utf-8"?>
<!-- Generator: Adobe Illustrator 19.0.0, SVG Export Plug-In . SVG Version: 6.00 Build 0)  -->
<svg version="1.1" id="Layer_1" xmlns="http://www.w3.org/2000/svg" xmlns:xlink="http://www.w3.org/1999/xlink" x="0px" y="0px"
	 viewBox="-226 228 58 58" style="enable-background:new -226 228 58 58;" xml:space="preserve">
<style type="text/css">
	.st0{fill:#DEFCFF;}
	.st1{fill:#58AEBC;}
</style>
<circle class="st0" cx="-197" cy="257" r="29"/>
<path class="st1" d="M-182.2,245c-9.9,0-19.7,0-29.6,0c-0.6,0-1,0.2-1.2,0.7v21.1c0.2,0.5,0.6,0.7,1.2,0.7c2.2,0,4.3,0,6.5,0h0.3
	c0,0,0,0,0,0c-0.1,0.1-0.2,0.1-0.3,0.2c-1.3,0.7-2.5,1.5-3.6,2.5c-0.2,0.2-0.4,0.5-0.3,0.9c0.1,0.7,0.9,1,1.5,0.6
	c0.5-0.4,1-0.8,1.5-1.2c2.9-2.1,6.1-3.1,9.6-3c3.8,0.1,7.1,1.5,9.9,3.9c0.2,0.2,0.4,0.3,0.7,0.4c0.4,0.1,0.8-0.1,1-0.4
	c0.2-0.4,0.1-0.8-0.2-1.2c-0.9-0.9-2-1.6-3.1-2.3c-0.3-0.1-0.5-0.3-0.8-0.5h0.3c2.2,0,4.3,0,6.5,0c0.6,0,1-0.2,1.2-0.7v-21.1
	C-181.3,245.2-181.7,245-182.2,245z M-197,260.9c-0.5,0-0.9-0.4-0.9-0.9s0.4-0.9,0.9-0.9c0.5,0,0.9,0.4,0.9,0.9
	C-196.1,260.5-196.5,260.9-197,260.9z M-193.7,258c-0.4,0.4-0.9,0.4-1.3,0c-1.1-1.1-2.9-1.1-4,0c-0.4,0.4-1,0.4-1.3,0
	c-0.4-0.4-0.3-1,0.1-1.4c0.9-0.8,1.9-1.3,3.2-1.3c1.2,0,2.3,0.4,3.3,1.3C-193.3,257.1-193.3,257.6-193.7,258z M-191.3,255.6
	c-0.4,0.2-0.8,0.1-1.1-0.2c-0.6-0.6-1.2-1-1.9-1.3c-2.4-1.1-5.2-0.6-7.2,1.2c-0.2,0.2-0.5,0.3-0.8,0.4c-0.4,0.1-0.7-0.2-0.9-0.5
	c-0.2-0.4-0.1-0.7,0.2-1.1c1.1-1.1,2.4-1.8,3.9-2.2c3-0.7,5.7,0,7.9,2.1c0.2,0.2,0.3,0.5,0.4,0.6
	C-190.8,255.1-191,255.4-191.3,255.6z"/>
</svg>
