<svg width="58" height="58" viewBox="0 0 58 58" fill="none" xmlns="http://www.w3.org/2000/svg">
<circle cx="29" cy="29" r="29" fill="#F7F5FF"/>
<path d="M43.7676 17C33.917 17.0083 24.058 17.0083 14.2074 17C13.6328 17 13.2498 17.1746 13 17.7151V38.8594C13.2498 39.3915 13.6495 39.5911 14.224 39.5828C16.3807 39.5578 18.5373 39.5994 20.694 39.5994H21.0354C21.0437 39.5994 21.052 39.6077 21.0604 39.6244C20.9605 39.6826 20.8605 39.7324 20.7606 39.7907C19.4616 40.4891 18.2792 41.3372 17.1967 42.335C16.9469 42.5678 16.8054 42.8505 16.8636 43.1914C16.9802 43.9314 17.7963 44.239 18.3958 43.7651C18.8871 43.366 19.3534 42.9336 19.8696 42.5595C22.7257 40.4808 25.9232 39.4664 29.4538 39.5662C33.2259 39.6742 36.5233 41.0212 39.3544 43.5156C39.5543 43.6903 39.7791 43.8649 40.0206 43.9563C40.4286 44.0977 40.8616 43.8815 41.0531 43.5156C41.2696 43.1249 41.1946 42.6842 40.8449 42.3516C39.904 41.4702 38.8631 40.7219 37.7473 40.0733C37.4892 39.9237 37.2227 39.7657 36.9729 39.5994H37.2894C39.4543 39.5994 41.6193 39.5662 43.7843 39.5828C44.3588 39.5911 44.7502 39.3915 45 38.8594V17.7151C44.7252 17.1746 44.3422 17 43.7676 17ZM28.9958 32.9476C28.4796 32.9476 28.0549 32.5319 28.0549 32.0247C28.0549 31.5175 28.4796 31.0851 28.9875 31.0851C29.4954 31.0851 29.9284 31.5092 29.9284 32.0164C29.9284 32.5319 29.5121 32.9476 28.9958 32.9476ZM32.3349 30.0042C31.9768 30.395 31.394 30.4366 30.9943 30.0375C29.9035 28.9566 28.1215 28.9399 26.9974 30.0292C26.5894 30.4283 26.0232 30.395 25.6568 30.0125C25.2904 29.6301 25.3237 29.048 25.74 28.6489C26.606 27.8175 27.6552 27.3851 28.9875 27.3352C30.1699 27.3269 31.319 27.7509 32.26 28.6822C32.6513 29.0563 32.668 29.6301 32.3349 30.0042ZM34.6831 27.568C34.2917 27.7426 33.9253 27.6761 33.6172 27.3768C33.0427 26.8197 32.4015 26.3707 31.6771 26.0464C29.2623 24.9655 26.4478 25.4394 24.5077 27.2354C24.2995 27.4267 24.0081 27.5846 23.7333 27.6428C23.3586 27.726 22.9922 27.4599 22.8423 27.1024C22.6841 26.7282 22.7507 26.3541 23.0588 26.0464C24.1496 24.9738 25.4236 24.2089 26.9225 23.868C29.9451 23.1695 32.6097 23.868 34.8662 26.0048C35.0578 26.1878 35.1577 26.4622 35.241 26.5952C35.1993 27.1024 35.0494 27.41 34.6831 27.568Z" fill="#7A5FFF"/>
</svg>
